<svg width="30" height="20" viewBox="0 0 30 20" fill="none" xmlns="http://www.w3.org/2000/svg">
<path d="M13.86 6.36764C13.9518 6.31829 13.9518 6.24261 13.86 6.19326C13.7681 6.14391 13.6138 6.14391 13.522 6.19326C13.4302 6.24261 13.4302 6.31829 13.522 6.36764C13.6138 6.41699 13.7681 6.41699 13.86 6.36764Z" fill="#8C8C8E"/>
<path d="M13.4531 6.27539V10.796C13.4531 10.8289 13.4752 10.8585 13.5229 10.8848C13.6148 10.9341 13.7691 10.9341 13.8609 10.8848C13.9087 10.8618 13.9307 10.8289 13.9307 10.7992V6.27868C13.9307 6.31158 13.905 6.34119 13.8609 6.36422C13.7691 6.41357 13.6148 6.41357 13.5229 6.36422C13.4752 6.34119 13.4531 6.30829 13.4531 6.27539Z" fill="url(#paint0_linear_237_20125)"/>
<path d="M18.692 3.86178C18.7839 3.81243 18.7839 3.73676 18.692 3.6874C18.6002 3.63805 18.4459 3.63805 18.354 3.6874C18.2622 3.73676 18.2622 3.81243 18.354 3.86178C18.4459 3.91113 18.6002 3.91113 18.692 3.86178Z" fill="#8C8C8E"/>
<path d="M18.2852 3.78125V8.30182C18.2852 8.33472 18.3072 8.36433 18.355 8.39065C18.4468 8.44 18.6011 8.44 18.6929 8.39065C18.7407 8.36762 18.7627 8.33472 18.7627 8.30511V3.78454C18.7627 3.81744 18.737 3.84705 18.6929 3.87008C18.6011 3.91943 18.4468 3.91943 18.355 3.87008C18.3072 3.84705 18.2852 3.81415 18.2852 3.78125Z" fill="url(#paint1_linear_237_20125)"/>
<path d="M8.83203 4.2113L16.927 0L21.8706 4.54689L13.7757 8.75819L8.83203 4.2113Z" fill="#F6F1EB"/>
<path d="M13.7956 8.76404L21.8906 4.55273L21.8098 4.72382L13.7148 8.93512L13.7956 8.76404Z" fill="#D8D3CC"/>
<path d="M8.85815 4.20898L13.8018 8.75587L13.721 8.92695L8.77734 4.38665L8.85815 4.20898Z" fill="#B9B4A7"/>
<path d="M21.2978 4.52471L21.3014 4.35363L20.6659 3.77129L20.4308 3.72852L19.7732 4.07068L19.7695 4.24177L20.4014 4.82411L20.6402 4.87017L21.2978 4.52471Z" fill="#576975"/>
<path opacity="0.2" d="M21.3058 4.52471L21.2691 4.54445L20.4021 3.74826L20.4388 3.72852L21.3058 4.52471ZM20.6482 4.87017L20.685 4.85043L19.818 4.05423L19.7812 4.07397L20.6446 4.87017H20.6482Z" fill="#8DBFC6"/>
<path d="M20.3486 5.01886L20.3522 4.84777L19.7204 4.26872L19.4816 4.22266L18.824 4.56812L18.8203 4.7392L19.4559 5.32154L19.691 5.36431L20.3486 5.01886Z" fill="#576975"/>
<path opacity="0.2" d="M20.3449 5.01886L20.3081 5.0386L19.4412 4.2424L19.4779 4.22266L20.3449 5.01886ZM19.6873 5.36431L19.724 5.34457L18.857 4.54837L18.8203 4.56812L19.6836 5.36431H19.6873Z" fill="#8DBFC6"/>
<path d="M19.372 5.52862L19.3757 5.35754L18.7438 4.77519L18.505 4.73242L17.8474 5.07459L17.8438 5.24567L18.4756 5.82802L18.7144 5.87408L19.372 5.52862Z" fill="#576975"/>
<path opacity="0.2" d="M19.3722 5.52862L19.3355 5.54836L18.4685 4.75216L18.5052 4.73242L19.3722 5.52862ZM18.7146 5.87408L18.7514 5.85434L17.8844 5.05814L17.8477 5.07788L18.7146 5.87408Z" fill="#8DBFC6"/>
<path d="M18.4304 6.02215L18.434 5.85106L17.7985 5.26872L17.5597 5.22266L16.9021 5.56811L16.8984 5.7392L17.534 6.32154L17.7691 6.36431L18.4304 6.02215Z" fill="#576975"/>
<path opacity="0.2" d="M18.4269 6.02081L18.3902 6.04055L17.5232 5.24435L17.5599 5.22461L18.4269 6.02081ZM17.7693 6.36298L17.8061 6.34324L16.9391 5.54375L16.9023 5.56349L17.7693 6.35969V6.36298Z" fill="#8DBFC6"/>
<path d="M17.4814 6.52081L17.485 6.34972L16.8532 5.76738L16.6144 5.72461L15.9568 6.06678L15.9531 6.23786L16.585 6.8235L16.8238 6.86627L17.4814 6.52081Z" fill="#576975"/>
<path opacity="0.2" d="M17.4777 6.52019L17.441 6.53993L16.574 5.74044L16.6107 5.7207L17.4777 6.52019ZM16.8201 6.86565L16.8568 6.84591L15.9899 6.04642L15.9531 6.06616L16.8201 6.86236V6.86565Z" fill="#8DBFC6"/>
<path d="M16.5319 7.01433L16.5356 6.84325L15.9 6.2609L15.6613 6.21484L15.0037 6.5603L15 6.73139L15.6355 7.31373L15.8743 7.35979L16.5319 7.01433Z" fill="#576975"/>
<path opacity="0.2" d="M16.5285 7.01433L16.4917 7.03407L15.6248 6.23458L15.6615 6.21484L16.5285 7.01433ZM15.8709 7.35979L15.9076 7.34005L15.0406 6.54056L15.0039 6.5603L15.8709 7.35979Z" fill="#8DBFC6"/>
<path d="M15.579 7.51886L15.5827 7.35106L14.9508 6.76543L14.712 6.72266L14.0545 7.06811L14.0508 7.23591L14.6863 7.82154L14.9214 7.86431L15.579 7.51886Z" fill="#576975"/>
<path opacity="0.2" d="M15.5793 7.52214L15.5425 7.54189L14.6755 6.7424L14.7123 6.72266L15.5793 7.52214ZM14.9217 7.86431L14.9584 7.84457L14.0914 7.04508L14.0547 7.06482L14.9217 7.86431Z" fill="#8DBFC6"/>
<path d="M14.6374 8.01238L14.6411 7.8413L14.0055 7.25895L13.7704 7.21289L13.1091 7.55835L13.1055 7.72943L13.741 8.31178L13.9798 8.35784L14.6374 8.01238Z" fill="#576975"/>
<path opacity="0.2" d="M14.6376 8.01238L14.6009 8.03212L13.7302 7.23263L13.767 7.21289L14.6376 8.01238ZM13.98 8.35784L14.0168 8.3381L13.1461 7.53861L13.1094 7.55835L13.9764 8.35784H13.98Z" fill="#8DBFC6"/>
<path d="M20.3876 3.6712L20.3913 3.50012L19.7594 2.92106L19.5206 2.875L18.863 3.22046L18.8594 3.39154L19.4912 3.97389L19.73 4.01666L20.3876 3.6712Z" fill="#576975"/>
<path opacity="0.2" d="M20.3878 3.6712L20.3511 3.69094L19.4841 2.89474L19.5209 2.875L20.3878 3.6712ZM19.7303 4.01666L19.767 3.99692L18.9 3.20072L18.8633 3.22046L19.7266 4.01666H19.7303Z" fill="#8DBFC6"/>
<path d="M19.4384 4.18682L19.4421 4.01574L18.8102 3.4334L18.5714 3.39062L17.9138 3.73279L17.9102 3.90388L18.5457 4.48622L18.7808 4.53228L19.4384 4.18682Z" fill="#576975"/>
<path opacity="0.2" d="M19.4386 4.18682L19.4019 4.20656L18.5349 3.41037L18.5716 3.39062L19.4386 4.18682ZM18.781 4.53228L18.8178 4.51254L17.9508 3.71634L17.9141 3.73608L18.7774 4.53228H18.781Z" fill="#8DBFC6"/>
<path d="M18.4931 4.67706L18.4968 4.50597L17.8649 3.92363L17.6261 3.88086L16.9685 4.22632L16.9648 4.39411L17.5967 4.97975L17.8355 5.02252L18.4931 4.67706Z" fill="#576975"/>
<path opacity="0.2" d="M18.4894 4.67706L18.4527 4.6968L17.5857 3.9006L17.6224 3.88086L18.4894 4.67706ZM17.8318 5.02252L17.8686 5.00278L17.0016 4.20658L16.9648 4.22632L17.8318 5.02252Z" fill="#8DBFC6"/>
<path d="M17.5087 5.18035L17.5124 5.00926L16.8805 4.42692L16.6417 4.38086L15.9841 4.72632L15.9805 4.8974L16.616 5.47975L16.8511 5.52581L17.5087 5.18035Z" fill="#576975"/>
<path opacity="0.2" d="M17.505 5.18097L17.4683 5.20071L16.6013 4.40451L16.6381 4.38477L17.505 5.18097ZM16.8475 5.52642L16.8842 5.50668L16.0172 4.70719L15.9805 4.72693L16.8475 5.52313V5.52642Z" fill="#8DBFC6"/>
<path d="M16.5556 5.66925L16.5593 5.50145L15.9237 4.91582L15.6886 4.87305L15.0273 5.2185V5.3863L15.6592 5.97193L15.898 6.0147L16.5556 5.66925Z" fill="#576975"/>
<path opacity="0.2" d="M16.5558 5.66863L16.5191 5.68837L15.6521 4.88888L15.6888 4.86914L16.5558 5.66863ZM15.8982 6.01409L15.935 5.99435L15.068 5.19486L15.0312 5.2146L15.8982 6.0108V6.01409Z" fill="#8DBFC6"/>
<path d="M15.6025 6.17449L15.6061 6.0034L14.9743 5.42106L14.7355 5.375L14.0779 5.72046L14.0742 5.89154L14.7098 6.47389L14.9449 6.51995L15.6025 6.17449Z" fill="#576975"/>
<path opacity="0.2" d="M15.6066 6.17449L15.5699 6.19423L14.7029 5.39474L14.7396 5.375L15.6066 6.17449ZM14.949 6.51995L14.9857 6.50021L14.1188 5.70072L14.082 5.72046L14.949 6.51995Z" fill="#8DBFC6"/>
<path d="M14.6608 6.66925L14.6645 6.50145L14.029 5.91582L13.7938 5.87305L13.1326 6.21522L13.1289 6.3863L13.7644 6.97193L14.0032 7.0147L14.6608 6.66925Z" fill="#576975"/>
<path opacity="0.2" d="M14.6574 6.67254L14.6206 6.69228L13.7537 5.89279L13.7904 5.87305L14.6574 6.67254ZM13.9998 7.01799L14.0365 6.99825L13.1695 6.19876L13.1328 6.2185L13.9998 7.01799Z" fill="#8DBFC6"/>
<path d="M13.7155 7.17644V7.00536L13.0836 6.42301L12.8449 6.37695L12.1873 6.72241L12.1836 6.8935L12.8191 7.47584L13.0542 7.5219L13.7155 7.17644Z" fill="#576975"/>
<path opacity="0.2" d="M13.7118 7.17644L13.6751 7.19618L12.8044 6.39669L12.8412 6.37695L13.7082 7.17644H13.7118ZM13.0542 7.5219L13.091 7.50216L12.2203 6.70267L12.1836 6.72241L13.0506 7.5219H13.0542Z" fill="#8DBFC6"/>
<path d="M19.4657 2.84698L19.4694 2.6759L18.8375 2.09355L18.5988 2.05078L17.9412 2.39295L17.9375 2.56403L18.5694 3.14638L18.8082 3.19244L19.4657 2.84698Z" fill="#576975"/>
<path opacity="0.2" d="M19.4621 2.84698L19.4253 2.86672L18.5583 2.07052L18.5951 2.05078L19.4621 2.84698ZM18.8045 3.19244L18.8412 3.1727L17.9742 2.3765L17.9375 2.39624L18.8008 3.19244H18.8045Z" fill="#8DBFC6"/>
<path d="M18.5204 3.33917L18.5278 3.16808L17.8922 2.58574L17.6571 2.54297L16.9959 2.88843L16.9922 3.05622L17.6277 3.63856L17.8628 3.68462L18.5204 3.33917Z" fill="#576975"/>
<path opacity="0.2" d="M18.5168 3.33917L18.48 3.35891L17.613 2.56271L17.6498 2.54297L18.5168 3.33917ZM17.8592 3.68462L17.8959 3.66489L17.0289 2.86869L16.9922 2.88843L17.8555 3.68462H17.8592Z" fill="#8DBFC6"/>
<path d="M17.5712 3.84246L17.5749 3.67137L16.9393 3.08903L16.7042 3.04297L16.0466 3.38843L16.043 3.55951L16.6748 4.14185L16.9136 4.18463L17.5712 3.84246Z" fill="#576975"/>
<path opacity="0.2" d="M17.5675 3.83917L17.5308 3.85891L16.6638 3.06271L16.7006 3.04297L17.5675 3.83917ZM16.91 4.18134L16.9467 4.1616L16.0797 3.3654L16.043 3.38514L16.91 4.18134Z" fill="#8DBFC6"/>
<path d="M16.6181 4.32745L16.6218 4.15636L15.9899 3.57402L15.7511 3.53125L15.0935 3.87342L15.0898 4.0445L15.7217 4.62685L15.9605 4.67291L16.6181 4.32745Z" fill="#576975"/>
<path opacity="0.2" d="M16.6183 4.32745L16.5816 4.34719L15.7146 3.55099L15.7513 3.53125L16.6183 4.32745ZM15.9607 4.67291L15.9975 4.65317L15.1305 3.85368L15.0938 3.87342L15.9607 4.66962V4.67291Z" fill="#8DBFC6"/>
<path d="M15.6374 4.83269L15.6411 4.66161L15.0055 4.07926L14.7704 4.0332L14.1091 4.37866L14.1055 4.54646L14.741 5.13209L14.9761 5.17486L15.6374 4.83269Z" fill="#576975"/>
<path opacity="0.2" d="M15.6611 4.83269L15.6243 4.85243L14.7573 4.05294L14.7941 4.0332L15.6611 4.83269ZM14.9998 5.17486L15.0365 5.15512L14.1695 4.35563L14.1328 4.37537L14.9998 5.17157V5.17486Z" fill="#8DBFC6"/>
<path d="M14.6845 5.34832L14.6882 5.17723L14.0563 4.59489L13.8175 4.54883L13.1599 4.89429L13.1562 5.06537L13.7881 5.64771L14.0269 5.69377L14.6845 5.34832Z" fill="#576975"/>
<path opacity="0.2" d="M14.6847 5.34832L14.648 5.36806L13.781 4.56857L13.8177 4.54883L14.6847 5.34832ZM14.0271 5.69377L14.0639 5.67403L13.1969 4.87455L13.1602 4.89429L14.0271 5.69377Z" fill="#8DBFC6"/>
<path d="M13.7429 5.83526L13.7465 5.66747L13.111 5.08183L12.8722 5.03906L12.2146 5.38123L12.2109 5.55231L12.8465 6.13795L13.0816 6.18072L13.7429 5.83526Z" fill="#576975"/>
<path opacity="0.2" d="M13.7355 5.83465L13.6988 5.85439L12.8318 5.0549L12.8685 5.03516L13.7355 5.83465ZM13.0779 6.1801L13.1147 6.16036L12.2477 5.36087L12.2109 5.38061L13.0779 6.1801Z" fill="#8DBFC6"/>
<path d="M12.7897 6.33074L12.7934 6.15965L12.1579 5.57731L11.9191 5.53125L11.2615 5.87671L11.2578 6.0445L11.8934 6.63014L12.1321 6.6762L12.7897 6.33074Z" fill="#576975"/>
<path opacity="0.2" d="M12.7861 6.33074L12.7493 6.35048L11.8787 5.55099L11.9154 5.53125L12.7824 6.33074H12.7861ZM12.1285 6.6762L12.1652 6.65646L11.2945 5.85697L11.2578 5.87671L12.1248 6.6762H12.1285Z" fill="#8DBFC6"/>
<path d="M18.5439 2.00714L18.5475 1.83934L17.9157 1.257L17.6769 1.21094L17.0193 1.5564L17.0156 1.72748L17.6475 2.30982L17.8863 2.35259L18.5439 2.00714Z" fill="#576975"/>
<path opacity="0.2" d="M18.5402 2.00714L18.5035 2.02688L17.6365 1.23068L17.6732 1.21094L18.5402 2.00714ZM17.8826 2.35259L17.9193 2.33285L17.0524 1.53666L17.0156 1.5564L17.8789 2.35259H17.8826Z" fill="#8DBFC6"/>
<path d="M17.5944 2.50066L17.5981 2.32958L16.9625 1.74723L16.7274 1.70117L16.0662 2.04663L16.0625 2.21771L16.698 2.80006L16.9332 2.84283L17.5944 2.50066Z" fill="#576975"/>
<path opacity="0.2" d="M17.5949 2.49932L17.5581 2.51906L16.6912 1.72287L16.7279 1.70312L17.5949 2.49932ZM16.9373 2.84149L16.974 2.82175L16.107 2.02555L16.0703 2.04529L16.9336 2.84149H16.9373Z" fill="#8DBFC6"/>
<path d="M16.6452 2.98565L16.6489 2.81457L16.0133 2.23222L15.7782 2.18945L15.117 2.53162L15.1133 2.7027L15.7488 3.28505L15.9876 3.33111L16.6452 2.98565Z" fill="#576975"/>
<path opacity="0.2" d="M16.6418 2.98565L16.605 3.00539L15.738 2.20919L15.7748 2.18945L16.6418 2.98565ZM15.9842 3.33111L16.0209 3.31137L15.1539 2.51517L15.1172 2.53491L15.9842 3.33111Z" fill="#8DBFC6"/>
<path d="M15.6962 3.48565L15.6999 3.31786L15.068 2.73222L14.8292 2.68945L14.1716 3.03162L14.168 3.20271L14.7998 3.78505L15.0386 3.83111L15.6962 3.48565Z" fill="#576975"/>
<path opacity="0.2" d="M15.6964 3.48565L15.6597 3.50539L14.7927 2.70919L14.8295 2.68945L15.6964 3.48565ZM15.0389 3.83111L15.0756 3.81137L14.2086 3.01188L14.1719 3.03162L15.0389 3.82782V3.83111Z" fill="#8DBFC6"/>
<path d="M14.7507 3.9948L14.7543 3.82372L14.1188 3.24137L13.88 3.19531L13.2224 3.54077L13.2188 3.71185L13.8543 4.2942L14.0894 4.33697L14.7507 3.9948Z" fill="#576975"/>
<path opacity="0.2" d="M14.7472 3.9948L14.7105 4.01454L13.8435 3.21505L13.8802 3.19531L14.7472 3.9948ZM14.0896 4.33697L14.1264 4.31723L13.2594 3.51774L13.2227 3.53748L14.0896 4.33368V4.33697Z" fill="#8DBFC6"/>
<path d="M13.7936 4.49675L13.7973 4.32567L13.1618 3.74333L12.9266 3.69727L12.2654 4.04272L12.2617 4.21381L12.8973 4.79615L13.136 4.84221L13.7936 4.49675Z" fill="#576975"/>
<path opacity="0.2" d="M13.8019 4.49675L13.7652 4.5165L12.8982 3.71701L12.9349 3.69727L13.8019 4.49675ZM13.1443 4.84221L13.1811 4.82247L12.3141 4.02298L12.2773 4.04272L13.1443 4.84221Z" fill="#8DBFC6"/>
<path d="M12.8132 4.99346L12.8168 4.82567L12.1813 4.24004L11.9462 4.19727L11.2849 4.53943L11.2812 4.71052L11.9168 5.29286L12.1556 5.33892L12.8132 4.99346Z" fill="#576975"/>
<path opacity="0.2" d="M12.8136 4.99089L12.7769 5.01063L11.9099 4.21115L11.9466 4.19141L12.8136 4.99089ZM12.156 5.33635L12.1928 5.31661L11.3258 4.51712L11.2891 4.53686L12.156 5.33635Z" fill="#8DBFC6"/>
<path d="M11.8642 5.48699L11.8678 5.3159L11.236 4.73027L10.9972 4.6875L10.3396 5.02967L10.3359 5.20075L10.9678 5.78639L11.2066 5.82916L11.8642 5.48699Z" fill="#576975"/>
<path opacity="0.2" d="M11.8642 5.48699L11.8274 5.50673L10.9568 4.70724L10.9935 4.6875L11.8642 5.48699ZM11.2066 5.82916L11.2433 5.80942L10.3727 5.00993L10.3359 5.02967L11.2029 5.82916H11.2066Z" fill="#8DBFC6"/>
<path d="M17.6259 1.15753L17.6296 0.986443L16.9977 0.404099L16.7626 0.361328L16.1013 0.703497L16.0977 0.874581L16.7295 1.45692L16.9683 1.50299L17.6259 1.15753Z" fill="#576975"/>
<path opacity="0.2" d="M17.6222 1.15753L17.5855 1.17727L16.7185 0.381069L16.7552 0.361328L17.6222 1.15753ZM16.9646 1.50299L17.0014 1.48324L16.1344 0.687046L16.0977 0.706786L16.961 1.50299H16.9646Z" fill="#8DBFC6"/>
<path d="M16.6764 1.65948L16.6801 1.4884L16.0446 0.906051L15.8095 0.863281L15.1482 1.20545L15.1445 1.37653L15.7801 1.95888L16.0152 2.00494L16.6764 1.65948Z" fill="#576975"/>
<path opacity="0.2" d="M16.6728 1.65948L16.636 1.67922L15.7691 0.883021L15.8058 0.863281L16.6728 1.65948ZM16.0115 2.00494L16.0482 1.9852L15.1813 1.189L15.1445 1.20874L16.0078 2.00494H16.0115Z" fill="#8DBFC6"/>
<path d="M15.7194 2.14776L15.7231 1.97997L15.0875 1.39762L14.8524 1.35156L14.1912 1.69702L14.1875 1.86482L14.823 2.44716L15.0582 2.49322L15.7194 2.14776Z" fill="#576975"/>
<path opacity="0.2" d="M15.7196 2.14776L15.6829 2.1675L14.8159 1.3713L14.8527 1.35156L15.7196 2.14776ZM15.0584 2.49322L15.0951 2.47348L14.2281 1.67728L14.1914 1.69702L15.0584 2.49322Z" fill="#8DBFC6"/>
<path d="M14.778 2.65691L14.7817 2.48583L14.1498 1.90348L13.911 1.85742L13.2534 2.20288L13.2461 2.37067L13.8816 2.95631L14.1204 2.99908L14.778 2.65691Z" fill="#576975"/>
<path opacity="0.2" d="M14.7707 2.66534L14.7339 2.68508L13.8669 1.88888L13.9037 1.86914L14.7707 2.66534ZM14.1131 3.00751L14.1498 2.98777L13.2828 2.18828L13.2461 2.20802L14.1131 3.00422V3.00751Z" fill="#8DBFC6"/>
<path d="M13.8251 3.15691L13.8288 2.98583L13.1969 2.40348L12.9581 2.35742L12.3005 2.70288L12.2969 2.87396L12.9287 3.45631L13.1675 3.49908L13.8251 3.15691Z" fill="#576975"/>
<path opacity="0.2" d="M13.8253 3.15691L13.7886 3.17665L12.9216 2.37716L12.9584 2.35742L13.8253 3.15691ZM13.1678 3.49908L13.2045 3.47934L12.3375 2.67985L12.3008 2.69959L13.1678 3.49579V3.49908Z" fill="#8DBFC6"/>
<path d="M12.8796 3.65691L12.8832 3.48583L12.2477 2.90348L12.0089 2.85742L11.3513 3.20288L11.3477 3.37397L11.9795 3.95631L12.2183 4.00237L12.8796 3.65691Z" fill="#576975"/>
<path opacity="0.2" d="M12.8761 3.65691L12.8394 3.67665L11.9724 2.87716L12.0091 2.85742L12.8761 3.65691ZM12.2185 4.00237L12.2553 3.98263L11.3883 3.18314L11.3516 3.20288L12.2185 4.00237Z" fill="#8DBFC6"/>
<path d="M11.9343 4.1419L11.9379 3.97082L11.3024 3.38847L11.0636 3.3457L10.406 3.68787L10.4023 3.85896L11.0379 4.4413L11.273 4.48736L11.9343 4.1419Z" fill="#576975"/>
<path opacity="0.2" d="M11.9306 4.14324L11.8938 4.16298L11.0269 3.36349L11.0636 3.34375L11.9306 4.14324ZM11.2693 4.4887L11.3061 4.46896L10.4391 3.66947L10.4023 3.68921L11.2693 4.4887Z" fill="#8DBFC6"/>
<path d="M10.9421 4.64715L10.9457 4.47606L10.3102 3.89043L10.0714 3.84766L9.41383 4.18982L9.41016 4.36091L10.0457 4.94654L10.2845 4.98931L10.9421 4.64715Z" fill="#576975"/>
<path opacity="0.2" d="M10.9462 4.64715L10.9095 4.66688L10.0388 3.8674L10.0756 3.84766L10.9425 4.64715H10.9462ZM10.2886 4.98931L10.3254 4.96957L9.45471 4.17008L9.41797 4.18982L10.285 4.98931H10.2886Z" fill="#8DBFC6"/>
<path d="M5.09045 10.9145C5.18229 10.8652 5.18229 10.7895 5.09045 10.7401C4.99861 10.6908 4.84432 10.6908 4.75247 10.7401C4.66063 10.7895 4.66063 10.8652 4.75247 10.9145C4.84432 10.9639 4.99861 10.9639 5.09045 10.9145Z" fill="#8C8C8E"/>
<path d="M4.67969 10.8242V15.3448C4.67969 15.3777 4.70173 15.4073 4.74949 15.4336C4.84133 15.483 4.99562 15.483 5.08746 15.4336C5.13522 15.4106 5.15726 15.3777 5.15726 15.3481V10.8275C5.15726 10.8604 5.13155 10.89 5.08746 10.9131C4.99562 10.9624 4.84133 10.9624 4.74949 10.9131C4.70173 10.89 4.67969 10.8571 4.67969 10.8242Z" fill="url(#paint2_linear_237_20125)"/>
<path d="M9.91076 8.40865C10.0026 8.3593 10.0026 8.28363 9.91076 8.23428C9.81892 8.18493 9.66463 8.18493 9.57279 8.23428C9.48095 8.28363 9.48095 8.3593 9.57279 8.40865C9.66463 8.458 9.81892 8.458 9.91076 8.40865Z" fill="#8C8C8E"/>
<path d="M9.50391 8.31445V12.835C9.50391 12.8679 9.52595 12.8975 9.57371 12.9239C9.66555 12.9732 9.81984 12.9732 9.91168 12.9239C9.95944 12.9008 9.98148 12.8679 9.98148 12.8383V8.31774C9.98148 8.35064 9.95944 8.38025 9.91168 8.40328C9.81984 8.45264 9.66555 8.45264 9.57371 8.40328C9.52595 8.38025 9.50391 8.34735 9.50391 8.31445Z" fill="url(#paint3_linear_237_20125)"/>
<path d="M0.09375 8.73083L8.18871 4.51953L13.1324 9.06642L5.03741 13.2777L0.09375 8.73083Z" fill="#F6F1EB"/>
<path d="M5.0183 13.2875L13.1133 9.07617L13.0325 9.24726L4.9375 13.4586L5.0183 13.2875Z" fill="#D8D3CC"/>
<path d="M0.0808027 8.74414L5.02446 13.291L4.94366 13.4621L0 8.92181L0.0808027 8.74414Z" fill="#B9B4A7"/>
<path d="M12.5282 9.05596L12.5319 8.88488L11.9 8.30254L11.6649 8.25977L11.0037 8.60522L11 8.77302L11.6355 9.35536L11.8707 9.40142L12.5282 9.05596Z" fill="#576975"/>
<path opacity="0.2" d="M12.5285 9.05596L12.4917 9.07571L11.6248 8.27951L11.6615 8.25977L12.5285 9.05596ZM11.8709 9.40142L11.9076 9.38168L11.0406 8.58548L11.0039 8.60522L11.8672 9.40142H11.8709Z" fill="#8DBFC6"/>
<path d="M11.5829 9.55535L11.5866 9.38426L10.9547 8.80192L10.7159 8.75586L10.0584 9.10132L10.0547 9.2724L10.6866 9.85474L10.9253 9.89752L11.5829 9.55535Z" fill="#576975"/>
<path opacity="0.2" d="M11.5832 9.55401L11.5464 9.57375L10.6794 8.77755L10.7162 8.75781L11.5832 9.55401ZM10.9256 9.89618L10.9623 9.87644L10.0953 9.08024L10.0586 9.09998L10.9219 9.89618H10.9256Z" fill="#8DBFC6"/>
<path d="M10.6376 10.0482L10.6413 9.87707L10.0057 9.29473L9.77063 9.25195L9.11305 9.59741L9.10938 9.76521L9.74124 10.3508L9.98003 10.3936L10.6376 10.0482Z" fill="#576975"/>
<path opacity="0.2" d="M10.6378 10.0482L10.6011 10.0679L9.73413 9.2717L9.77086 9.25195L10.6378 10.0482ZM9.98026 10.3936L10.017 10.3739L9.15002 9.57767L9.11328 9.59741L9.98026 10.3936Z" fill="#8DBFC6"/>
<path d="M9.64933 10.5456L9.65301 10.3745L9.02114 9.79215L8.78235 9.74609L8.12477 10.0916L8.12109 10.2626L8.75664 10.845L8.99175 10.891L9.64933 10.5456Z" fill="#576975"/>
<path opacity="0.2" d="M9.65347 10.5462L9.61673 10.5659L8.74975 9.76974L8.78649 9.75L9.65347 10.5462ZM8.99589 10.8917L9.03262 10.8719L8.16564 10.0724L8.12891 10.0922L8.99589 10.8884V10.8917Z" fill="#8DBFC6"/>
<path d="M8.70011 11.0482L8.70379 10.8804L8.06825 10.2947L7.83313 10.252L7.17555 10.5974L7.17188 10.7685L7.80374 11.3508L8.04253 11.3936L8.70011 11.0482Z" fill="#576975"/>
<path opacity="0.2" d="M8.69644 11.0514L8.6597 11.0712L7.79272 10.2717L7.82946 10.252L8.69644 11.0514ZM8.03886 11.3936L8.07559 11.3739L7.20861 10.5744L7.17188 10.5941L8.03886 11.3936Z" fill="#8DBFC6"/>
<path d="M7.75457 11.5514L7.75824 11.3804L7.1227 10.798L6.88391 10.752L6.22633 11.0974L6.22266 11.2685L6.8582 11.8508L7.09331 11.8969L7.75457 11.5514Z" fill="#576975"/>
<path opacity="0.2" d="M7.75113 11.5514L7.71439 11.5712L6.84741 10.7717L6.88415 10.752L7.75113 11.5514ZM7.09354 11.8969L7.13028 11.8772L6.2633 11.0777L6.22656 11.0974L7.09354 11.8969Z" fill="#8DBFC6"/>
<path d="M6.80558 12.0475L6.80926 11.8765L6.17371 11.2941L5.9386 11.248L5.28102 11.5935L5.27734 11.7646L5.90921 12.3469L6.148 12.393L6.80558 12.0475Z" fill="#576975"/>
<path opacity="0.2" d="M6.80581 12.0475L6.76908 12.0673L5.9021 11.2678L5.93883 11.248L6.80581 12.0475ZM6.14823 12.393L6.18497 12.3733L5.31799 11.5738L5.28125 11.5935L6.14823 12.393Z" fill="#8DBFC6"/>
<path d="M5.86394 12.5462L5.86762 12.3751L5.23208 11.7928L4.99329 11.75L4.3357 12.0922L4.33203 12.2633L4.96757 12.8489L5.20636 12.8917L5.86394 12.5462Z" fill="#576975"/>
<path opacity="0.2" d="M5.86027 12.5475L5.82353 12.5673L4.95288 11.7678L4.98961 11.748L5.86027 12.5475ZM5.20269 12.893L5.23942 12.8733L4.36877 12.0738L4.33203 12.0935L5.19901 12.893H5.20269Z" fill="#8DBFC6"/>
<path d="M11.6103 8.21941L11.6139 8.04833L10.9784 7.46598L10.7433 7.41992L10.0857 7.76538L10.082 7.93646L10.7139 8.51881L10.949 8.56158L11.6103 8.21941Z" fill="#576975"/>
<path opacity="0.2" d="M11.6103 8.21807L11.5735 8.23781L10.7066 7.44162L10.7433 7.42188L11.6103 8.21807ZM10.949 8.56024L10.9857 8.5405L10.1188 7.7443L10.082 7.76404L10.9453 8.56024H10.949Z" fill="#8DBFC6"/>
<path d="M10.6611 8.70831L10.6647 8.53722L10.0329 7.95488L9.79407 7.91211L9.13649 8.25428L9.13281 8.42536L9.76468 9.00771L10.0035 9.05377L10.6611 8.70831Z" fill="#576975"/>
<path opacity="0.2" d="M10.6613 8.70831L10.6245 8.72805L9.75757 7.93185L9.7943 7.91211L10.6613 8.70831ZM10.0037 9.05377L10.0404 9.03403L9.17345 8.23783L9.13672 8.25757L10 9.05377H10.0037Z" fill="#8DBFC6"/>
<path d="M9.71941 9.20965L9.72309 9.03856L9.08754 8.45622L8.85243 8.41016L8.19117 8.75562L8.1875 8.9267L8.82304 9.50904L9.06183 9.55181L9.71941 9.20965Z" fill="#576975"/>
<path opacity="0.2" d="M9.71597 9.21221L9.67923 9.23195L8.81225 8.43576L8.84899 8.41602L9.71597 9.21221ZM9.05839 9.55438L9.09512 9.53464L8.22814 8.73844L8.19141 8.75818L9.05839 9.55438Z" fill="#8DBFC6"/>
<path d="M8.77043 9.70831L8.7741 9.53722L8.14223 8.95488L7.90344 8.91211L7.24586 9.25428L7.24219 9.42536L7.87406 10.0077L8.11284 10.0538L8.77043 9.70831Z" fill="#576975"/>
<path opacity="0.2" d="M8.77066 9.70831L8.73392 9.72805L7.86694 8.93185L7.90368 8.91211L8.77066 9.70831ZM8.11308 10.0538L8.14981 10.034L7.28283 9.23454L7.24609 9.25428L8.11308 10.0505V10.0538Z" fill="#8DBFC6"/>
<path d="M7.78191 10.2116L7.78559 10.0405L7.15004 9.45817L6.91493 9.41211L6.25367 9.75757L6.25 9.92865L6.88554 10.511L7.12433 10.5538L7.78191 10.2116Z" fill="#576975"/>
<path opacity="0.2" d="M7.81753 10.2116L7.7808 10.2313L6.91382 9.43185L6.95055 9.41211L7.81753 10.2116ZM7.15995 10.5538L7.19669 10.534L6.32971 9.73454L6.29297 9.75428L7.15995 10.5505V10.5538Z" fill="#8DBFC6"/>
<path d="M6.82902 10.7064L6.83269 10.5353L6.20083 9.95293L5.96204 9.91016L5.30445 10.2523L5.30078 10.4234L5.93265 11.0058L6.17144 11.0518L6.82902 10.7064Z" fill="#576975"/>
<path opacity="0.2" d="M6.83316 10.7057L6.79642 10.7255L5.92944 9.92599L5.96618 9.90625L6.83316 10.7057ZM6.17558 11.0512L6.21231 11.0315L5.34533 10.232L5.30859 10.2517L6.17558 11.0512Z" fill="#8DBFC6"/>
<path d="M5.88347 11.2096L5.88715 11.0386L5.25161 10.4529L5.01282 10.4102L4.35524 10.7556L4.35156 10.9267L4.9871 11.509L5.22589 11.5518L5.88347 11.2096Z" fill="#576975"/>
<path opacity="0.2" d="M5.88003 11.2096L5.8433 11.2294L4.97632 10.4299L5.01305 10.4102L5.88003 11.2096ZM5.22245 11.5518L5.25919 11.5321L4.39221 10.7326L4.35547 10.7523L5.22245 11.5518Z" fill="#8DBFC6"/>
<path d="M4.93449 11.6979L4.93816 11.5268L4.30262 10.9445L4.06751 10.8984L3.40992 11.2439L3.40625 11.415L4.03812 11.9973L4.2769 12.0434L4.93449 11.6979Z" fill="#576975"/>
<path opacity="0.2" d="M4.93449 11.6979L4.89775 11.7177L4.0271 10.9182L4.06383 10.8984L4.93081 11.6979H4.93449ZM4.2769 12.0434L4.31364 12.0236L3.44299 11.2242L3.40625 11.2439L4.27323 12.0434H4.2769Z" fill="#8DBFC6"/>
<path d="M10.6884 7.36651L10.6921 7.19543L10.0602 6.61308L9.82141 6.57031L9.16383 6.91577L9.16016 7.08357L9.79202 7.66591L10.0308 7.71197L10.6884 7.36651Z" fill="#576975"/>
<path opacity="0.2" d="M10.6847 7.36651L10.648 7.38625L9.781 6.59005L9.81774 6.57031L10.6847 7.36651ZM10.0271 7.71197L10.0639 7.69223L9.19689 6.89603L9.16016 6.91577L10.0235 7.71197H10.0271Z" fill="#8DBFC6"/>
<path d="M9.74308 7.87175L9.74676 7.70067L9.11489 7.11833L8.8761 7.07227L8.21852 7.41772L8.21484 7.58881L8.84671 8.17115L9.0855 8.21392L9.74308 7.87175Z" fill="#576975"/>
<path opacity="0.2" d="M9.73941 7.87042L9.70267 7.89016L8.83569 7.09396L8.87243 7.07422L9.73941 7.87042ZM9.08183 8.21259L9.11856 8.19284L8.25158 7.39665L8.21484 7.41639L9.07815 8.21259H9.08183Z" fill="#8DBFC6"/>
<path d="M8.79754 8.36651L8.80121 8.19543L8.16567 7.61309L7.93056 7.57031L7.2693 7.91248L7.26562 8.08357L7.90117 8.66591L8.13628 8.71197L8.79754 8.36651Z" fill="#576975"/>
<path opacity="0.2" d="M8.79386 8.36651L8.75713 8.38625L7.89015 7.59005L7.92688 7.57031L8.79386 8.36651ZM8.13261 8.71197L8.16934 8.69223L7.30236 7.89603L7.26562 7.91577L8.13261 8.71197Z" fill="#8DBFC6"/>
<path d="M7.84464 8.87237L7.84832 8.70458L7.21645 8.11894L6.97766 8.07617L6.32008 8.42163L6.31641 8.58942L6.94827 9.17506L7.18706 9.21783L7.84464 8.87237Z" fill="#576975"/>
<path opacity="0.2" d="M7.84878 8.87237L7.81205 8.89211L6.94507 8.09591L6.9818 8.07617L7.84878 8.87237ZM7.1912 9.21783L7.22794 9.19809L6.36096 8.3986L6.32422 8.41834L7.1912 9.21454V9.21783Z" fill="#8DBFC6"/>
<path d="M6.90691 9.36785V9.19676L6.27504 8.61442L6.03626 8.56836L5.37867 8.91382L5.375 9.0849L6.01054 9.66724L6.24566 9.71002L6.90691 9.36785Z" fill="#576975"/>
<path opacity="0.2" d="M6.89956 9.36785L6.86283 9.38759L5.99585 8.5881L6.03258 8.56836L6.89956 9.36785ZM6.24198 9.71002L6.27872 9.69027L5.41174 8.89079L5.375 8.91053L6.24198 9.70673V9.71002Z" fill="#8DBFC6"/>
<path d="M5.95379 9.86651L5.95746 9.69543L5.32192 9.11309L5.08681 9.07031L4.42555 9.41248L4.42188 9.58357L5.05742 10.1659L5.2962 10.212L5.95379 9.86651Z" fill="#576975"/>
<path opacity="0.2" d="M5.95035 9.86589L5.91361 9.88563L5.04663 9.08615L5.08336 9.06641L5.95035 9.86589ZM5.29276 10.2114L5.3295 10.1916L4.46252 9.39212L4.42578 9.41186L5.29276 10.2114Z" fill="#8DBFC6"/>
<path d="M4.95793 10.362L4.9616 10.1909L4.32973 9.60527L4.09094 9.5625L3.43336 9.90796L3.42969 10.0758L4.06156 10.6614L4.30034 10.7042L4.95793 10.362Z" fill="#576975"/>
<path opacity="0.2" d="M4.96206 10.362L4.92533 10.3817L4.05835 9.58224L4.09508 9.5625L4.96206 10.362ZM4.30448 10.7042L4.34122 10.6844L3.47424 9.88493L3.4375 9.90467L4.30448 10.7042Z" fill="#8DBFC6"/>
<path d="M4.01238 10.86L4.01605 10.689L3.38051 10.1066L3.14173 10.0605L2.48414 10.406L2.48047 10.5771L3.11601 11.1594L3.3548 11.2055L4.01238 10.86Z" fill="#576975"/>
<path opacity="0.2" d="M4.01261 10.86L3.97588 10.8798L3.10522 10.0803L3.14196 10.0605L4.01261 10.86ZM3.35503 11.2055L3.39177 11.1858L2.52111 10.3863L2.48438 10.406L3.35136 11.2055H3.35503Z" fill="#8DBFC6"/>
<path d="M9.77043 6.53191L9.7741 6.36083L9.14223 5.77848L8.90344 5.73242L8.24586 6.07788L8.24219 6.24896L8.87406 6.83131L9.11284 6.87408L9.77043 6.53191Z" fill="#576975"/>
<path opacity="0.2" d="M9.77456 6.53057L9.73783 6.55031L8.87085 5.75412L8.90758 5.73438L9.77456 6.53057ZM9.11698 6.87274L9.15372 6.853L8.28674 6.0568L8.25 6.07654L9.11331 6.87274H9.11698Z" fill="#8DBFC6"/>
<path d="M8.8173 7.03057L8.82097 6.85949L8.18911 6.27715L7.95032 6.23438L7.29274 6.57654L7.28906 6.74763L7.92093 7.32997L8.15972 7.37603L8.8173 7.03057Z" fill="#576975"/>
<path opacity="0.2" d="M8.81753 7.03057L8.7808 7.05031L7.91382 6.25411L7.95055 6.23438L8.81753 7.03057ZM8.15995 7.37603L8.19669 7.35629L7.32971 6.56009L7.29297 6.57983L8.15628 7.37603H8.15995Z" fill="#8DBFC6"/>
<path d="M7.87176 7.52862L7.87543 7.36083L7.23989 6.77519L7.00477 6.73242L6.34352 7.07788L6.33984 7.24567L6.97539 7.82802L7.2105 7.87408L7.87176 7.52862Z" fill="#576975"/>
<path opacity="0.2" d="M7.87589 7.52862L7.83916 7.54836L6.97218 6.75216L7.00891 6.73242L7.87589 7.52862ZM7.21464 7.87408L7.25137 7.85434L6.38439 7.05814L6.34766 7.07788L7.21464 7.87408Z" fill="#8DBFC6"/>
<path d="M6.92644 8.02996L6.93012 7.85887L6.29457 7.27653L6.05946 7.23047L5.3982 7.57593L5.39453 7.74701L6.03007 8.32935L6.26886 8.37213L6.92644 8.02996Z" fill="#576975"/>
<path opacity="0.2" d="M6.9191 8.02862L6.88236 8.04836L6.01538 7.25216L6.05211 7.23242L6.9191 8.02862ZM6.26151 8.37079L6.29825 8.35105L5.43127 7.55156L5.39453 7.5713L6.26151 8.3675V8.37079Z" fill="#8DBFC6"/>
<path d="M5.97355 8.52605L5.97722 8.35497L5.34536 7.77263L5.10657 7.72656L4.44899 8.07202L4.44531 8.24311L5.07718 8.82545L5.31597 8.87151L5.97355 8.52605Z" fill="#576975"/>
<path opacity="0.2" d="M5.96988 8.52605L5.93314 8.54579L5.06616 7.7463L5.1029 7.72656L5.96988 8.52605ZM5.31229 8.87151L5.34903 8.85177L4.48205 8.05228L4.44531 8.07202L5.31229 8.86822V8.87151Z" fill="#8DBFC6"/>
<path d="M5.02801 9.01885L5.03168 8.84777L4.39614 8.26543L4.15735 8.22266L3.49977 8.56482L3.49609 8.73591L4.13164 9.31825L4.36675 9.36431L5.02801 9.01885Z" fill="#576975"/>
<path opacity="0.2" d="M5.02824 9.01824L4.9915 9.03798L4.12452 8.23849L4.16126 8.21875L5.02824 9.01824ZM4.36698 9.3637L4.40372 9.34396L3.53674 8.54447L3.5 8.56421L4.36698 9.3637Z" fill="#8DBFC6"/>
<path d="M4.07879 9.52019L4.08246 9.34911L3.44692 8.76347L3.21181 8.7207L2.55055 9.06287L2.54688 9.23395L3.18242 9.81959L3.4212 9.86236L4.07879 9.52019Z" fill="#576975"/>
<path opacity="0.2" d="M4.07925 9.52019L4.04252 9.53993L3.17553 8.74044L3.21227 8.7207L4.07925 9.52019ZM3.42167 9.86236L3.45841 9.84262L2.59142 9.04313L2.55469 9.06287L3.42167 9.86236Z" fill="#8DBFC6"/>
<path d="M3.09051 10.0163L3.09418 9.8452L2.45864 9.26286L2.22352 9.2168L1.56227 9.56226L1.55859 9.73334L2.19414 10.3157L2.43292 10.3617L3.09051 10.0163Z" fill="#576975"/>
<path opacity="0.2" d="M3.08683 10.0163L3.0501 10.036L2.17944 9.23654L2.21618 9.2168L3.08316 10.0163H3.08683ZM2.42925 10.3617L2.46599 10.342L1.59533 9.54252L1.55859 9.56226L2.42557 10.3617H2.42925Z" fill="#8DBFC6"/>
<path d="M8.88761 5.68292L8.89129 5.51183L8.25942 4.93278L8.02063 4.88672L7.36305 5.23218L7.35938 5.39997L7.99124 5.98231L8.23003 6.02837L8.88761 5.68292Z" fill="#576975"/>
<path opacity="0.2" d="M8.88785 5.68292L8.85111 5.70266L7.98413 4.90646L8.02086 4.88672L8.88785 5.68292ZM8.23026 6.02837L8.267 6.00864L7.40002 5.21244L7.36328 5.23218L8.22659 6.02837H8.23026Z" fill="#8DBFC6"/>
<path d="M7.89933 6.19268L7.90301 6.02489L7.27114 5.44255L7.03235 5.39648L6.37477 5.74194L6.37109 5.90974L7.00296 6.49208L7.24175 6.53814L7.89933 6.19268Z" fill="#576975"/>
<path opacity="0.2" d="M7.93863 6.19268L7.90189 6.21242L7.03491 5.41623L7.07165 5.39648L7.93863 6.19268ZM7.28104 6.53814L7.31778 6.5184L6.4508 5.7222L6.41406 5.74194L7.27737 6.53814H7.28104Z" fill="#8DBFC6"/>
<path d="M6.95379 6.69793L6.95746 6.52684L6.32192 5.9445L6.08681 5.89844L5.42555 6.2439L5.42188 6.41498L6.05742 6.99732L6.29253 7.04009L6.95379 6.69793Z" fill="#576975"/>
<path opacity="0.2" d="M6.95011 6.69659L6.91338 6.71633L6.0464 5.92013L6.08313 5.90039L6.95011 6.69659ZM6.28886 7.03876L6.32559 7.01902L5.45861 6.22282L5.42188 6.24256L6.28886 7.03876Z" fill="#8DBFC6"/>
<path d="M6.00066 7.18425L6.00434 7.01317L5.36879 6.43083L5.13368 6.38477L4.47242 6.73022L4.46875 6.90131L5.10429 7.48365L5.33941 7.52642L6.00066 7.18425Z" fill="#576975"/>
<path opacity="0.2" d="M5.99699 7.18292L5.96025 7.20266L5.09327 6.40646L5.13001 6.38672L5.99699 7.18292ZM5.33573 7.52509L5.37247 7.50535L4.50549 6.70586L4.46875 6.7256L5.33573 7.5218V7.52509Z" fill="#8DBFC6"/>
<path d="M5.05144 7.67706L5.05512 7.50597L4.42325 6.92363L4.18446 6.88086L3.5232 7.22303L3.51953 7.39411L4.15507 7.97646L4.39386 8.02252L5.05144 7.67706Z" fill="#576975"/>
<path opacity="0.2" d="M5.048 7.6784L5.01127 7.69813L4.14428 6.89865L4.18102 6.87891L5.048 7.6784ZM4.39042 8.02385L4.42716 8.00411L3.56017 7.20462L3.52344 7.22437L4.39042 8.02056V8.02385Z" fill="#8DBFC6"/>
<path d="M4.10246 8.17511L4.10613 8.00731L3.47426 7.42168L3.23548 7.37891L2.57789 7.72107L2.57422 7.89216L3.20609 8.4745L3.44487 8.52056L4.10246 8.17511Z" fill="#576975"/>
<path opacity="0.2" d="M4.10269 8.17644L4.06595 8.19618L3.19897 7.39669L3.23571 7.37695L4.10269 8.17644ZM3.44511 8.5219L3.48184 8.50216L2.61486 7.70267L2.57812 7.72241L3.44511 8.5219Z" fill="#8DBFC6"/>
<path d="M3.15691 8.6823V8.51122L2.52504 7.92559L2.28626 7.88281L1.62867 8.22498L1.625 8.39607L2.25687 8.9817L2.49565 9.02447L3.15691 8.6823Z" fill="#576975"/>
<path opacity="0.2" d="M3.15347 8.6823L3.11673 8.70204L2.24975 7.90255L2.28649 7.88281L3.15347 8.6823ZM2.49589 9.02447L2.53262 9.00473L1.66564 8.20524L1.62891 8.22498L2.49589 9.02447Z" fill="#8DBFC6"/>
<path d="M2.20769 9.17449L2.21137 9.00341L1.57583 8.42106L1.33704 8.375L0.679455 8.71717L0.675781 8.88825L1.31132 9.47389L1.54644 9.51666L2.20769 9.17449Z" fill="#576975"/>
<path opacity="0.2" d="M2.20769 9.17449L2.17096 9.19423L1.3003 8.39474L1.33704 8.375L2.20402 9.17449H2.20769ZM1.54644 9.51666L1.58317 9.49692L0.712518 8.69743L0.675781 8.71717L1.54276 9.51666H1.54644Z" fill="#8DBFC6"/>
<path d="M21.9576 10.9145C22.0495 10.8652 22.0495 10.7895 21.9576 10.7401C21.8658 10.6908 21.7115 10.6908 21.6197 10.7401C21.5278 10.7895 21.5278 10.8652 21.6197 10.9145C21.7115 10.9639 21.8658 10.9639 21.9576 10.9145Z" fill="#8C8C8E"/>
<path d="M21.5469 10.8262V15.3467C21.5469 15.3796 21.5689 15.4125 21.6167 15.4356C21.7085 15.4849 21.8628 15.4849 21.9547 15.4356C22.0024 15.4125 22.0244 15.3796 22.0244 15.35V10.8295C22.0244 10.8591 21.9987 10.892 21.9547 10.915C21.8628 10.9644 21.7085 10.9644 21.6167 10.915C21.5689 10.892 21.5469 10.8591 21.5469 10.8262Z" fill="url(#paint4_linear_237_20125)"/>
<path d="M26.7936 8.41061C26.8854 8.36125 26.8854 8.28558 26.7936 8.23623C26.7017 8.18688 26.5474 8.18688 26.4556 8.23623C26.3638 8.28558 26.3638 8.36125 26.4556 8.41061C26.5474 8.45996 26.7017 8.45996 26.7936 8.41061Z" fill="#8C8C8E"/>
<path d="M26.3867 8.32031V12.8409C26.3867 12.8738 26.4088 12.9034 26.4565 12.9297C26.5484 12.9791 26.7027 12.9791 26.7945 12.9297C26.8423 12.9067 26.8643 12.8738 26.8643 12.8442V8.3236C26.8643 8.3565 26.8386 8.38612 26.7945 8.40915C26.7027 8.4585 26.5484 8.4585 26.4565 8.40915C26.4088 8.38612 26.3867 8.35321 26.3867 8.32031Z" fill="url(#paint5_linear_237_20125)"/>
<path d="M16.9648 8.76208L25.0561 4.55078L29.9998 9.09767L21.9085 13.309L16.9648 8.76208Z" fill="#F6F1EB"/>
<path d="M21.8933 13.2933L29.9846 9.08203L29.9075 9.25311L21.8125 13.4644L21.8933 13.2933Z" fill="#D8D3CC"/>
<path d="M16.9519 8.75586L21.8956 13.3027L21.8147 13.4738L16.8711 8.93352L16.9519 8.75586Z" fill="#B9B4A7"/>
<path d="M29.3993 9.06182L29.403 8.89403L28.7711 8.31169L28.5324 8.26562L27.8748 8.61108L27.8711 8.78217L28.503 9.36451L28.7417 9.40728L29.3993 9.06182Z" fill="#576975"/>
<path opacity="0.2" d="M29.3996 9.06182L29.3628 9.08156L28.4958 8.28536L28.5326 8.26562L29.3996 9.06182ZM28.742 9.40728L28.7787 9.38754L27.9117 8.59134L27.875 8.61108L28.7383 9.40728H28.742Z" fill="#8DBFC6"/>
<path d="M28.4462 9.56378L28.4499 9.39269L27.8143 8.81035L27.5792 8.76758L26.9216 9.10975L26.918 9.28083L27.5498 9.86317L27.7886 9.90924L28.4462 9.56378Z" fill="#576975"/>
<path opacity="0.2" d="M28.4425 9.56378L28.4058 9.58352L27.5388 8.78732L27.5756 8.76758L28.4425 9.56378ZM27.785 9.90924L27.8217 9.8895L26.9547 9.0933L26.918 9.11304L27.7813 9.90924H27.785Z" fill="#8DBFC6"/>
<path d="M27.497 10.0553L27.5007 9.88426L26.8688 9.30192L26.63 9.25586L25.9724 9.60132L25.9688 9.7724L26.6043 10.3547L26.8394 10.3975L27.497 10.0553Z" fill="#576975"/>
<path opacity="0.2" d="M27.4972 10.0579L27.4605 10.0777L26.5935 9.28146L26.6302 9.26172L27.4972 10.0579ZM26.8396 10.4001L26.8764 10.3803L26.0094 9.58414L25.9727 9.60388L26.8396 10.4001Z" fill="#8DBFC6"/>
<path d="M26.5243 10.5638L26.528 10.3927L25.8925 9.81035L25.6573 9.76758L24.9998 10.113L24.9961 10.2808L25.628 10.8665L25.8667 10.9092L26.5243 10.5638Z" fill="#576975"/>
<path opacity="0.2" d="M26.5285 10.5638L26.4917 10.5835L25.6248 9.78732L25.6615 9.76758L26.5285 10.5638ZM25.8709 10.9092L25.9076 10.8895L25.0406 10.09L25.0039 10.1097L25.8709 10.9059V10.9092Z" fill="#8DBFC6"/>
<path d="M25.5788 11.0593L25.5825 10.8882L24.9469 10.3058L24.7081 10.2598L24.0505 10.6052L24.0469 10.7763L24.6824 11.3587L24.9212 11.4047L25.5788 11.0593Z" fill="#576975"/>
<path opacity="0.2" d="M25.5793 11.0593L25.5425 11.079L24.6755 10.2795L24.7123 10.2598L25.5793 11.0593ZM24.9217 11.4047L24.9584 11.385L24.0914 10.5855L24.0547 10.6052L24.9217 11.4014V11.4047Z" fill="#8DBFC6"/>
<path d="M24.6298 11.5618L24.6335 11.394L24.0016 10.8084L23.7628 10.7656L23.1052 11.1111L23.1016 11.2822L23.7371 11.8645L23.9722 11.9073L24.6298 11.5618Z" fill="#576975"/>
<path opacity="0.2" d="M24.63 11.5651L24.5933 11.5849L23.7263 10.7854L23.7631 10.7656L24.63 11.5651ZM23.9725 11.9073L24.0092 11.8875L23.1422 11.0881L23.1055 11.1078L23.9725 11.9073Z" fill="#8DBFC6"/>
<path d="M23.6803 12.0553L23.684 11.8843L23.0485 11.3019L22.8097 11.2559L22.1521 11.6013L22.1484 11.7724L22.784 12.3547L23.0228 12.4008L23.6803 12.0553Z" fill="#576975"/>
<path opacity="0.2" d="M23.6847 12.0553L23.648 12.0751L22.781 11.2756L22.8177 11.2559L23.6847 12.0553ZM23.0271 12.4008L23.0639 12.3811L22.1969 11.5816L22.1602 11.6013L23.0271 12.4008Z" fill="#8DBFC6"/>
<path d="M22.7314 12.5593L22.735 12.3882L22.1032 11.8025L21.8644 11.7598L21.2068 12.1052L21.2031 12.2763L21.8387 12.8587L22.0738 12.9047L22.7314 12.5593Z" fill="#576975"/>
<path opacity="0.2" d="M22.7314 12.5593L22.6946 12.579L21.824 11.7795L21.8607 11.7598L22.7277 12.5593H22.7314ZM22.0738 12.9047L22.1105 12.885L21.2399 12.0855L21.2031 12.1052L22.0701 12.9047H22.0738Z" fill="#8DBFC6"/>
<path d="M28.4853 8.22393L28.4889 8.05285L27.8571 7.47051L27.622 7.42773L26.9607 7.7699L26.957 7.94099L27.5926 8.52333L27.8277 8.56939L28.4853 8.22393Z" fill="#576975"/>
<path opacity="0.2" d="M28.4816 8.22393L28.4449 8.24367L27.5779 7.44748L27.6146 7.42773L28.4816 8.22393ZM27.824 8.56939L27.8608 8.54965L26.9938 7.75345L26.957 7.77319L27.8203 8.56939H27.824Z" fill="#8DBFC6"/>
<path d="M27.54 8.71417L27.5436 8.54637L26.9118 7.96403L26.673 7.91797L26.0154 8.26343L26.0117 8.43451L26.6436 9.01685L26.8824 9.05963L27.54 8.71417Z" fill="#576975"/>
<path opacity="0.2" d="M27.5402 8.71417L27.5035 8.73391L26.6365 7.93771L26.6732 7.91797L27.5402 8.71417ZM26.8826 9.05963L26.9193 9.03988L26.0524 8.24369L26.0156 8.26343L26.8789 9.05963H26.8826Z" fill="#8DBFC6"/>
<path d="M26.579 9.22394L26.5827 9.05285L25.9508 8.47051L25.712 8.42773L25.0545 8.7699L25.0508 8.94099L25.6863 9.52333L25.9214 9.56939L26.579 9.22394Z" fill="#576975"/>
<path opacity="0.2" d="M26.5832 9.22394L26.5464 9.24367L25.6794 8.44748L25.7162 8.42773L26.5832 9.22394ZM25.9256 9.56939L25.9623 9.54965L25.0953 8.75345L25.0586 8.77319L25.9256 9.56939Z" fill="#8DBFC6"/>
<path d="M25.6337 9.72003L25.6374 9.55223L25.0018 8.96989L24.7667 8.92383L24.1091 9.26929L24.1055 9.44037L24.7373 10.0227L24.9761 10.0655L25.6337 9.72003Z" fill="#576975"/>
<path opacity="0.2" d="M25.63 9.72393L25.5933 9.74367L24.7263 8.94747L24.7631 8.92773L25.63 9.72393ZM24.9725 10.0661L25.0092 10.0464L24.1422 9.24687L24.1055 9.26661L24.9725 10.0628V10.0661Z" fill="#8DBFC6"/>
<path d="M24.6571 10.2214L24.6608 10.0503L24.029 9.46794L23.7902 9.42188L23.1326 9.76733L23.1289 9.93842L23.7644 10.5208L23.9996 10.5668L24.6571 10.2214Z" fill="#576975"/>
<path opacity="0.2" d="M24.6808 10.2214L24.6441 10.2411L23.7771 9.44161L23.8138 9.42188L24.6808 10.2214ZM24.0232 10.5668L24.06 10.5471L23.193 9.74759L23.1562 9.76733L24.0232 10.5635V10.5668Z" fill="#8DBFC6"/>
<path d="M23.7077 10.7175L23.7114 10.5464L23.0758 9.96074L22.8407 9.91797L22.1795 10.2634L22.1758 10.4312L22.8113 11.0169L23.0501 11.0596L23.7077 10.7175Z" fill="#576975"/>
<path opacity="0.2" d="M23.7043 10.7175L23.6675 10.7372L22.8005 9.93771L22.8373 9.91797L23.7043 10.7175ZM23.0467 11.0596L23.0834 11.0399L22.2164 10.2404L22.1797 10.2601L23.0467 11.0596Z" fill="#8DBFC6"/>
<path d="M22.7587 11.2155L22.7624 11.0444L22.1305 10.4621L21.8917 10.416L21.2341 10.7615L21.2305 10.9326L21.866 11.5149L22.1011 11.561L22.7587 11.2155Z" fill="#576975"/>
<path opacity="0.2" d="M22.755 11.2155L22.7183 11.2352L21.8513 10.4358L21.8881 10.416L22.755 11.2155ZM22.0975 11.561L22.1342 11.5412L21.2672 10.7417L21.2305 10.7615L22.0975 11.561Z" fill="#8DBFC6"/>
<path d="M21.8053 11.7077L21.809 11.5366L21.1735 10.951L20.9347 10.9082L20.2771 11.2504L20.2734 11.4215L20.909 12.0071L21.1478 12.0499L21.8053 11.7077Z" fill="#576975"/>
<path opacity="0.2" d="M21.8095 11.7077L21.7728 11.7274L20.9021 10.9279L20.9388 10.9082L21.8058 11.7077H21.8095ZM21.1519 12.0499L21.1886 12.0301L20.318 11.2306L20.2812 11.2504L21.1482 12.0499H21.1519Z" fill="#8DBFC6"/>
<path d="M27.5632 7.37237L27.5668 7.20458L26.9313 6.62223L26.6962 6.57617L26.0349 6.92163L26.0312 7.09271L26.6668 7.67506L26.9019 7.71783L27.5632 7.37237Z" fill="#576975"/>
<path opacity="0.2" d="M27.5636 7.38018L27.5269 7.39992L26.6599 6.60373L26.6966 6.58398L27.5636 7.38018ZM26.906 7.72235L26.9428 7.70261L26.0758 6.90641L26.0391 6.92615L26.9024 7.72235H26.906Z" fill="#8DBFC6"/>
<path d="M26.6181 7.88409L26.6218 7.71301L25.9899 7.13066L25.7511 7.08789L25.0935 7.43006L25.0898 7.60114L25.7217 8.18349L25.9605 8.22955L26.6181 7.88409Z" fill="#576975"/>
<path opacity="0.2" d="M26.6144 7.88409L26.5777 7.90383L25.7107 7.10763L25.7474 7.08789L26.6144 7.88409ZM25.9568 8.22955L25.9936 8.20981L25.1266 7.41361L25.0898 7.43335L25.9532 8.22955H25.9568Z" fill="#8DBFC6"/>
<path d="M25.665 8.38604L25.6686 8.21825L25.0368 7.63262L24.798 7.58984L24.1404 7.9353L24.1367 8.1031L24.7686 8.68873L25.0074 8.7315L25.665 8.38604Z" fill="#576975"/>
<path opacity="0.2" d="M25.6691 8.38604L25.6324 8.40578L24.7654 7.60958L24.8021 7.58984L25.6691 8.38604ZM25.0115 8.7315L25.0483 8.71176L24.1813 7.91556L24.1445 7.9353L25.0115 8.7315Z" fill="#8DBFC6"/>
<path d="M24.7155 8.88152L24.7192 8.71043L24.0836 8.12809L23.8485 8.08203L23.1873 8.42749L23.1836 8.59857L23.8191 9.18092L24.0579 9.22369L24.7155 8.88152Z" fill="#576975"/>
<path opacity="0.2" d="M24.716 8.88018L24.6792 8.89992L23.8123 8.10373L23.849 8.08398L24.716 8.88018ZM24.0584 9.22235L24.0951 9.20261L23.2281 8.40312L23.1914 8.42286L24.0584 9.21906V9.22235Z" fill="#8DBFC6"/>
<path d="M23.7548 9.37432L23.7585 9.20324L23.1266 8.6209L22.8878 8.57812L22.2302 8.92029L22.2266 9.09138L22.8584 9.67372L23.0972 9.71978L23.7548 9.37432Z" fill="#576975"/>
<path opacity="0.2" d="M23.7668 9.37566L23.73 9.3954L22.863 8.59591L22.8998 8.57617L23.7668 9.37566ZM23.1092 9.72112L23.1459 9.70138L22.2789 8.90189L22.2422 8.92163L23.1092 9.71783V9.72112Z" fill="#8DBFC6"/>
<path d="M22.8132 9.87371L22.8168 9.70262L22.1813 9.12028L21.9425 9.07422L21.2849 9.41968L21.2812 9.58747L21.9168 10.1731L22.1519 10.2159L22.8132 9.87371Z" fill="#576975"/>
<path opacity="0.2" d="M22.8095 9.87371L22.7728 9.89345L21.9058 9.09396L21.9425 9.07422L22.8095 9.87371ZM22.1482 10.2159L22.185 10.1961L21.318 9.39664L21.2812 9.41639L22.1482 10.2159Z" fill="#8DBFC6"/>
<path d="M21.8327 10.3678L21.8364 10.1968L21.2008 9.61442L20.9657 9.56836L20.3045 9.91382L20.3008 10.0849L20.9363 10.6672L21.1751 10.7133L21.8327 10.3678Z" fill="#576975"/>
<path opacity="0.2" d="M21.8293 10.3678L21.7925 10.3876L20.9255 9.5881L20.9623 9.56836L21.8293 10.3678ZM21.1717 10.7133L21.2084 10.6936L20.3414 9.89408L20.3047 9.91382L21.1717 10.7133Z" fill="#8DBFC6"/>
<path d="M20.8837 10.8704L20.8874 10.7026L20.2555 10.117L20.0167 10.0742L19.3591 10.4164L19.3555 10.5875L19.991 11.1731L20.2261 11.2159L20.8837 10.8704Z" fill="#576975"/>
<path opacity="0.2" d="M20.8837 10.8737L20.847 10.8934L19.9763 10.094L20.0131 10.0742L20.8837 10.8737ZM20.2261 11.2159L20.2629 11.1961L19.3922 10.3966L19.3555 10.4164L20.2225 11.2159H20.2261Z" fill="#8DBFC6"/>
<path d="M26.6452 6.53643L26.6489 6.36535L26.0133 5.78301L25.7782 5.74023L25.117 6.0824L25.1133 6.25349L25.7488 6.83583L25.9839 6.88189L26.6452 6.53643Z" fill="#576975"/>
<path opacity="0.2" d="M26.6415 6.53643L26.6048 6.55617L25.7378 5.75998L25.7745 5.74023L26.6415 6.53643ZM25.9803 6.88189L26.017 6.86215L25.15 6.06595L25.1133 6.08569L25.9766 6.88189H25.9803Z" fill="#8DBFC6"/>
<path d="M25.6923 7.0462L25.696 6.8784L25.0641 6.29606L24.8253 6.25L24.1677 6.59546L24.1641 6.76325L24.7959 7.3456L25.0347 7.39166L25.6923 7.0462Z" fill="#576975"/>
<path opacity="0.2" d="M25.6925 7.0462L25.6558 7.06594L24.7888 6.26974L24.8256 6.25L25.6925 7.0462ZM25.035 7.39166L25.0717 7.37192L24.2047 6.57572L24.168 6.59546L25.0313 7.39166H25.035Z" fill="#8DBFC6"/>
<path d="M24.7431 7.54363L24.7468 7.37255L24.1149 6.7902L23.8761 6.74414L23.2185 7.0896L23.2148 7.26068L23.8467 7.84303L24.0855 7.8858L24.7431 7.54363Z" fill="#576975"/>
<path opacity="0.2" d="M24.7472 7.54034L24.7105 7.56008L23.8435 6.76388L23.8802 6.74414L24.7472 7.54034ZM24.0896 7.88251L24.1264 7.86277L23.2594 7.06657L23.2227 7.08631L24.0896 7.88251Z" fill="#8DBFC6"/>
<path d="M23.7975 8.04034L23.8012 7.86926L23.1657 7.28691L22.9306 7.24414L22.2693 7.58631L22.2656 7.75739L22.9012 8.33974L23.1363 8.3858L23.7975 8.04034Z" fill="#576975"/>
<path opacity="0.2" d="M23.8017 8.04034L23.7649 8.06008L22.898 7.26388L22.9347 7.24414L23.8017 8.04034ZM23.1404 8.3858L23.1772 8.36606L22.3102 7.56657L22.2734 7.58631L23.1404 8.38251V8.3858Z" fill="#8DBFC6"/>
<path d="M22.8483 8.52862L22.852 8.36083L22.2165 7.77519L21.9813 7.73242L21.3201 8.07459L21.3164 8.24567L21.9519 8.82802L22.1907 8.87408L22.8483 8.52862Z" fill="#576975"/>
<path opacity="0.2" d="M22.8449 8.52996L22.8081 8.5497L21.9412 7.75021L21.9779 7.73047L22.8449 8.52996ZM22.1873 8.87542L22.224 8.85567L21.357 8.05619L21.3203 8.07593L22.1873 8.87213V8.87542Z" fill="#8DBFC6"/>
<path d="M21.8954 9.03191L21.8991 8.86083L21.2672 8.27848L21.0284 8.23242L20.3709 8.57788L20.3672 8.74567L20.9991 9.33131L21.2378 9.37408L21.8954 9.03191Z" fill="#576975"/>
<path opacity="0.2" d="M21.8918 9.03191L21.855 9.05165L20.988 8.25216L21.0248 8.23242L21.8918 9.03191ZM21.2342 9.37408L21.2709 9.35434L20.4039 8.55485L20.3672 8.57459L21.2342 9.37408Z" fill="#8DBFC6"/>
<path d="M20.9382 9.52605L20.9418 9.35497L20.3063 8.77262L20.0675 8.72656L19.4099 9.07202L19.4062 9.2431L20.0418 9.82545L20.2769 9.87151L20.9382 9.52605Z" fill="#576975"/>
<path opacity="0.2" d="M20.9462 9.52605L20.9095 9.54579L20.0425 8.7463L20.0792 8.72656L20.9462 9.52605ZM20.285 9.87151L20.3217 9.85177L19.4547 9.05228L19.418 9.07202L20.285 9.87151Z" fill="#8DBFC6"/>
<path d="M19.9655 10.0358L19.9692 9.86473L19.3336 9.28239L19.0949 9.23633L18.4373 9.58179L18.4336 9.75287L19.0691 10.3352L19.3079 10.3813L19.9655 10.0358Z" fill="#576975"/>
<path opacity="0.2" d="M19.9618 10.0358L19.9251 10.0556L19.0544 9.25607L19.0912 9.23633L19.9582 10.0358H19.9618ZM19.3042 10.3813L19.341 10.3615L18.4703 9.56205L18.4336 9.58179L19.3006 10.3813H19.3042Z" fill="#8DBFC6"/>
<path d="M25.7509 5.70965L25.7546 5.53856L25.1227 4.95622L24.8839 4.91016L24.2263 5.25561L24.2227 5.4267L24.8545 6.00904L25.0896 6.05181L25.7509 5.70965Z" fill="#576975"/>
<path opacity="0.2" d="M25.7509 5.70831L25.7142 5.72805L24.8472 4.93185L24.8839 4.91211L25.7509 5.70831ZM25.0896 6.05048L25.1264 6.03074L24.2594 5.23454L24.2227 5.25428L25.086 6.05048H25.0896Z" fill="#8DBFC6"/>
<path d="M24.7743 6.19854L24.778 6.02746L24.1461 5.44511L23.9074 5.40234L23.2498 5.74451L23.2461 5.9156L23.878 6.49794L24.1167 6.54071L24.7743 6.19854Z" fill="#576975"/>
<path opacity="0.2" d="M24.798 6.19854L24.7613 6.21828L23.8943 5.42208L23.931 5.40234L24.798 6.19854ZM24.1404 6.54071L24.1772 6.52097L23.3102 5.72477L23.2734 5.74451L24.1367 6.54071H24.1404Z" fill="#8DBFC6"/>
<path d="M23.8212 6.69854L23.8249 6.52746L23.193 5.94512L22.9542 5.90234L22.2966 6.24451L22.293 6.4156L22.9248 6.99794L23.1636 7.044L23.8212 6.69854Z" fill="#576975"/>
<path opacity="0.2" d="M23.8214 6.69854L23.7847 6.71828L22.9177 5.92208L22.9545 5.90234L23.8214 6.69854ZM23.1639 7.044L23.2006 7.02426L22.3336 6.22806L22.2969 6.2478L23.1639 7.044Z" fill="#8DBFC6"/>
<path d="M22.8796 7.18682L22.8832 7.01574L22.2477 6.4334L22.0089 6.39062L21.3513 6.73279L21.3477 6.90388L21.9795 7.48622L22.2183 7.53228L22.8796 7.18682Z" fill="#576975"/>
<path opacity="0.2" d="M22.8722 7.18682L22.8355 7.20656L21.9685 6.41036L22.0052 6.39062L22.8722 7.18682ZM22.2146 7.53228L22.2514 7.51254L21.3844 6.71305L21.3477 6.73279L22.2146 7.52899V7.53228Z" fill="#8DBFC6"/>
<path d="M21.9264 7.69402L21.9301 7.52294L21.2946 6.94059L21.0595 6.89453L20.3982 7.2367L20.3945 7.40778L21.0301 7.99342L21.2652 8.03619L21.9264 7.69402Z" fill="#576975"/>
<path opacity="0.2" d="M21.9306 7.69402L21.8938 7.71376L21.0269 6.91427L21.0636 6.89453L21.9306 7.69402ZM21.2693 8.03619L21.3061 8.01645L20.4391 7.21696L20.4023 7.2367L21.2693 8.0329V8.03619Z" fill="#8DBFC6"/>
<path d="M20.9772 8.19011L20.9809 8.01903L20.3454 7.43669L20.1102 7.39062L19.449 7.73608L19.4453 7.90388L20.0809 8.48951L20.3196 8.53228L20.9772 8.19011Z" fill="#576975"/>
<path opacity="0.2" d="M20.9777 8.19011L20.941 8.20985L20.074 7.41037L20.1107 7.39062L20.9777 8.19011ZM20.3201 8.53228L20.3568 8.51254L19.4899 7.71305L19.4531 7.73279L20.3201 8.53228Z" fill="#8DBFC6"/>
<path d="M20.0319 8.69597L20.0356 8.52489L19.4 7.94255L19.1649 7.89648L18.5037 8.24194L18.5 8.41303L19.1355 8.99537L19.3743 9.04143L20.0319 8.69597Z" fill="#576975"/>
<path opacity="0.2" d="M20.0285 8.69597L19.9917 8.71571L19.1248 7.91622L19.1615 7.89648L20.0285 8.69597ZM19.3709 9.04143L19.4076 9.02169L18.5406 8.2222L18.5039 8.24194L19.3709 9.04143Z" fill="#8DBFC6"/>
<path d="M19.071 9.1823L19.0746 9.01122L18.4428 8.42887L18.204 8.38281L17.5427 8.72827L17.5391 8.89935L18.1746 9.4817L18.4134 9.52776L19.071 9.1823Z" fill="#576975"/>
<path opacity="0.2" d="M19.0712 9.1823L19.0345 9.20204L18.1638 8.40255L18.2006 8.38281L19.0712 9.1823ZM18.4136 9.52776L18.4504 9.50802L17.5797 8.70853L17.543 8.72827L18.41 9.52776H18.4136Z" fill="#8DBFC6"/>
<path d="M13.1803 15.4438C13.2721 15.3945 13.2721 15.3188 13.1803 15.2694C13.0885 15.2201 12.9342 15.2201 12.8423 15.2694C12.7505 15.3188 12.7505 15.3945 12.8423 15.4438C12.9342 15.4932 13.0885 15.4932 13.1803 15.4438Z" fill="#8C8C8E"/>
<path d="M12.7695 15.3555V19.876C12.7695 19.9089 12.7916 19.9385 12.8393 19.9649C12.9312 20.0142 13.0855 20.0142 13.1773 19.9649C13.2251 19.9418 13.2471 19.9089 13.2471 19.8793V15.3588C13.2471 15.3917 13.2251 15.4213 13.1773 15.4443C13.0855 15.4937 12.9312 15.4937 12.8393 15.4443C12.7916 15.4213 12.7695 15.3884 12.7695 15.3555Z" fill="url(#paint6_linear_237_20125)"/>
<path d="M18.0123 12.9399C18.1042 12.8906 18.1042 12.8149 18.0123 12.7655C17.9205 12.7162 17.7662 12.7162 17.6743 12.7655C17.5825 12.8149 17.5825 12.8906 17.6743 12.9399C17.7662 12.9893 17.9205 12.9893 18.0123 12.9399Z" fill="#8C8C8E"/>
<path d="M17.6055 12.8477V17.3682C17.6055 17.4011 17.6275 17.434 17.6753 17.4571C17.7671 17.5064 17.9214 17.5064 18.0132 17.4571C18.061 17.434 18.083 17.4011 18.083 17.3715V12.8509C18.083 12.8838 18.0573 12.9135 18.0132 12.9365C17.9214 12.9858 17.7671 12.9858 17.6753 12.9365C17.6275 12.9135 17.6055 12.8806 17.6055 12.8477Z" fill="url(#paint7_linear_237_20125)"/>
<path d="M8.19141 13.2783L16.2864 9.07031L21.23 13.6172L13.1387 17.8252L8.19141 13.2783Z" fill="#F6F1EB"/>
<path d="M13.1121 17.8252L21.2033 13.6172L21.1225 13.7883L13.0312 17.9963L13.1121 17.8252Z" fill="#D8D3CC"/>
<path d="M8.17846 13.2773L13.1258 17.8242L13.045 17.9953L8.09766 13.4583L8.17846 13.2773Z" fill="#B9B4A7"/>
<path d="M20.6298 13.5925L20.6335 13.4214L20.0016 12.839L19.7628 12.793L19.1052 13.1384L19.1016 13.3095L19.7334 13.8919L19.9722 13.9346L20.6298 13.5925Z" fill="#576975"/>
<path opacity="0.2" d="M20.63 13.5989L20.5933 13.6187L19.7263 12.8225L19.7631 12.8027L20.63 13.5989ZM19.9725 13.9411L20.0092 13.9214L19.1422 13.1252L19.1055 13.1449L19.9688 13.9411H19.9725Z" fill="#8DBFC6"/>
<path d="M19.6843 14.0911L19.6879 13.92L19.0524 13.3377L18.8173 13.2949L18.156 13.6404L18.1523 13.8115L18.7879 14.3938L19.023 14.4366L19.6843 14.0911Z" fill="#576975"/>
<path opacity="0.2" d="M19.6808 14.0911L19.6441 14.1109L18.7771 13.3147L18.8138 13.2949L19.6808 14.0911ZM19.0232 14.4366L19.06 14.4168L18.193 13.6206L18.1562 13.6404L19.0196 14.4366H19.0232Z" fill="#8DBFC6"/>
<path d="M18.7353 14.5911L18.7389 14.42L18.1071 13.8377L17.8683 13.7949L17.2107 14.1371L17.207 14.3082L17.8389 14.8905L18.0777 14.9366L18.7353 14.5911Z" fill="#576975"/>
<path opacity="0.2" d="M18.7355 14.5911L18.6988 14.6109L17.8318 13.8147L17.8685 13.7949L18.7355 14.5911ZM18.0779 14.9366L18.1147 14.9168L17.2477 14.1206L17.2109 14.1404L18.0779 14.9366Z" fill="#8DBFC6"/>
<path d="M17.7782 15.0872L17.7819 14.9194L17.1464 14.3371L16.9113 14.291L16.25 14.6365V14.8076L16.8819 15.3899L17.1207 15.4327L17.7782 15.0872Z" fill="#576975"/>
<path opacity="0.2" d="M17.7902 15.0911L17.7535 15.1109L16.8865 14.3147L16.9232 14.2949L17.7902 15.0911ZM17.1326 15.4333L17.1693 15.4135L16.3024 14.6141L16.2656 14.6338L17.1326 15.43V15.4333Z" fill="#8DBFC6"/>
<path d="M16.7978 15.5911L16.8014 15.42L16.1696 14.8377L15.9308 14.7949L15.2732 15.1371L15.2695 15.3082L15.9051 15.8905L16.1402 15.9366L16.7978 15.5911Z" fill="#576975"/>
<path opacity="0.2" d="M16.8019 15.5886L16.7652 15.6083L15.8982 14.8088L15.9349 14.7891L16.8019 15.5886ZM16.1443 15.934L16.1811 15.9143L15.3141 15.1148L15.2773 15.1345L16.1443 15.9307V15.934Z" fill="#8DBFC6"/>
<path d="M15.8525 16.0827L15.8561 15.9116L15.2206 15.3293L14.9855 15.2832L14.3279 15.6287L14.3242 15.7997L14.9561 16.3821L15.1949 16.4281L15.8525 16.0827Z" fill="#576975"/>
<path opacity="0.2" d="M15.8527 16.0827L15.816 16.1024L14.949 15.3029L14.9857 15.2832L15.8527 16.0827ZM15.1951 16.4281L15.2318 16.4084L14.3649 15.6089L14.3281 15.6287L15.1951 16.4281Z" fill="#8DBFC6"/>
<path d="M14.903 16.5872L14.9067 16.4194L14.2711 15.8338L14.0324 15.791L13.3748 16.1332L13.3711 16.3043L14.0066 16.8899L14.2454 16.9327L14.903 16.5872Z" fill="#576975"/>
<path opacity="0.2" d="M14.9035 16.5846L14.8667 16.6044L13.9998 15.8049L14.0365 15.7852L14.9035 16.5846ZM14.2459 16.9301L14.2826 16.9104L13.4156 16.1109L13.3789 16.1306L14.2459 16.9301Z" fill="#8DBFC6"/>
<path d="M13.954 17.0827L13.9577 16.9116L13.3222 16.3293L13.087 16.2832L12.4295 16.6287L12.4258 16.7997L13.0576 17.3821L13.2964 17.4281L13.954 17.0827Z" fill="#576975"/>
<path opacity="0.2" d="M13.954 17.0827L13.9173 17.1024L13.0466 16.3029L13.0834 16.2832L13.9503 17.0827H13.954ZM13.2964 17.4281L13.3332 17.4084L12.4625 16.6089L12.4258 16.6287L13.2928 17.4281H13.2964Z" fill="#8DBFC6"/>
<path d="M19.7118 12.7532L19.7155 12.5821L19.0836 11.9998L18.8449 11.957L18.1873 12.3025L18.1836 12.4736L18.8155 13.0526L19.0542 13.0987L19.7118 12.7532Z" fill="#576975"/>
<path opacity="0.2" d="M19.7082 12.7532L19.6714 12.773L18.8044 11.9768L18.8412 11.957L19.7082 12.7532ZM19.0506 13.0987L19.0873 13.0789L18.2203 12.2828L18.1836 12.3025L19.0469 13.0987H19.0506Z" fill="#8DBFC6"/>
<path d="M18.7585 13.2507L18.7621 13.0796L18.1266 12.4972L17.8915 12.4512L17.2302 12.7966L17.2266 12.9677L17.8621 13.5501L18.0972 13.5928L18.7585 13.2507Z" fill="#576975"/>
<path opacity="0.2" d="M18.7626 13.261L18.7259 13.2808L17.8589 12.4846L17.8956 12.4648L18.7626 13.261ZM18.1014 13.6032L18.1381 13.5835L17.2711 12.7873L17.2344 12.807L18.0977 13.6032H18.1014Z" fill="#8DBFC6"/>
<path d="M17.8134 13.7474L17.8171 13.5763L17.1852 12.9939L16.9464 12.9512L16.2888 13.2966L16.2852 13.4644L16.917 14.0468L17.1558 14.0928L17.8134 13.7474Z" fill="#576975"/>
<path opacity="0.2" d="M17.8097 13.7474L17.773 13.7671L16.906 12.9709L16.9427 12.9512L17.8097 13.7474ZM17.1521 14.0928L17.1889 14.0731L16.3219 13.2769L16.2852 13.2966L17.1521 14.0928Z" fill="#8DBFC6"/>
<path d="M16.8679 14.2468L16.8715 14.0757L16.236 13.4933L16.0009 13.4473L15.3396 13.7927L15.3359 13.9638L15.9715 14.5462L16.2066 14.5922L16.8679 14.2468Z" fill="#576975"/>
<path opacity="0.2" d="M16.8681 14.2454L16.8313 14.2652L15.9644 13.469L16.0011 13.4492L16.8681 14.2454ZM16.2068 14.5909L16.2436 14.5711L15.3766 13.7716L15.3398 13.7914L16.2068 14.5876V14.5909Z" fill="#8DBFC6"/>
<path d="M15.9189 14.7415L15.9225 14.5704L15.2907 13.9881L15.0519 13.9453L14.3943 14.2875L14.3906 14.4586L15.0225 15.0442L15.2613 15.087L15.9189 14.7415Z" fill="#576975"/>
<path opacity="0.2" d="M15.9191 14.7428L15.8824 14.7626L15.0154 13.9631L15.0521 13.9434L15.9191 14.7428ZM15.2615 15.0883L15.2982 15.0686L14.4313 14.2691L14.3945 14.2888L15.2615 15.085V15.0883Z" fill="#8DBFC6"/>
<path d="M14.9343 15.2428L14.9379 15.0718L14.3024 14.4894L14.0636 14.4434L13.406 14.7888L13.4023 14.9599L14.0379 15.5422L14.2767 15.5883L14.9343 15.2428Z" fill="#576975"/>
<path opacity="0.2" d="M14.9621 15.2428L14.9253 15.2626L14.0583 14.4631L14.0951 14.4434L14.9621 15.2428ZM14.3045 15.5883L14.3412 15.5686L13.4742 14.7691L13.4375 14.7888L14.3045 15.5883Z" fill="#8DBFC6"/>
<path d="M13.9814 15.7376L13.985 15.5665L13.3495 14.9842L13.1144 14.9414L12.4568 15.2836L12.4531 15.4547L13.085 16.0403L13.3238 16.0831L13.9814 15.7376Z" fill="#576975"/>
<path opacity="0.2" d="M13.9816 15.7389L13.9449 15.7587L13.0779 14.9592L13.1146 14.9395L13.9816 15.7389ZM13.324 16.0844L13.3607 16.0647L12.4938 15.2652L12.457 15.2849L13.324 16.0844Z" fill="#8DBFC6"/>
<path d="M13.0319 16.2389L13.0356 16.0679L12.4 15.4855L12.1613 15.4395L11.5037 15.7849L11.5 15.956L12.1355 16.5383L12.3743 16.5844L13.0319 16.2389Z" fill="#576975"/>
<path opacity="0.2" d="M13.0361 16.2389L12.9993 16.2587L12.1287 15.4592L12.1654 15.4395L13.0361 16.2389ZM12.3785 16.5844L12.4152 16.5647L11.5445 15.7652L11.5078 15.7849L12.3748 16.5844H12.3785Z" fill="#8DBFC6"/>
<path d="M18.79 11.9153L18.7936 11.7443L18.1618 11.1619L17.923 11.1191L17.2654 11.4613L17.2617 11.6324L17.8936 12.2147L18.1324 12.2575L18.79 11.9153Z" fill="#576975"/>
<path opacity="0.2" d="M18.7863 11.9153L18.7495 11.9351L17.8826 11.1389L17.9193 11.1191L18.7863 11.9153ZM18.1287 12.2575L18.1654 12.2378L17.2985 11.4416L17.2617 11.4613L18.125 12.2575H18.1287Z" fill="#8DBFC6"/>
<path d="M17.8405 12.4114L17.8442 12.2403L17.2086 11.658L16.9735 11.6152L16.3123 11.9607L16.3086 12.1285L16.9441 12.7108L17.1792 12.7569L17.8405 12.4114Z" fill="#576975"/>
<path opacity="0.2" d="M17.8407 12.4114L17.804 12.4312L16.937 11.635L16.9738 11.6152L17.8407 12.4114ZM17.1795 12.7569L17.2162 12.7372L16.3492 11.941L16.3125 11.9607L17.1758 12.7569H17.1795Z" fill="#8DBFC6"/>
<path d="M16.8837 12.9108L16.8874 12.7397L16.2555 12.1574L16.0167 12.1113L15.3591 12.4568L15.3555 12.6279L15.9873 13.2102L16.2261 13.253L16.8837 12.9108Z" fill="#576975"/>
<path opacity="0.2" d="M16.8839 12.9095L16.8472 12.9292L15.9802 12.133L16.017 12.1133L16.8839 12.9095ZM16.2264 13.2516L16.2631 13.2319L15.3961 12.4357L15.3594 12.4554L16.2264 13.2516Z" fill="#8DBFC6"/>
<path d="M15.9421 13.4017L15.9457 13.2306L15.3102 12.6482L15.0714 12.6055L14.4138 12.9476L14.4102 13.1187L15.0457 13.7011L15.2808 13.7471L15.9421 13.4017Z" fill="#576975"/>
<path opacity="0.2" d="M15.9347 13.4017L15.898 13.4214L15.031 12.6252L15.0677 12.6055L15.9347 13.4017ZM15.2771 13.7471L15.3139 13.7274L14.4469 12.9279L14.4102 12.9476L15.2771 13.7438V13.7471Z" fill="#8DBFC6"/>
<path d="M14.9929 13.9036L14.9965 13.7358L14.361 13.1502L14.1259 13.1074L13.4646 13.4529L13.4609 13.6207L14.0965 14.2063L14.3353 14.2491L14.9929 13.9036Z" fill="#576975"/>
<path opacity="0.2" d="M14.9894 13.9069L14.9527 13.9267L14.0857 13.1272L14.1224 13.1074L14.9894 13.9069ZM14.3318 14.2491L14.3686 14.2293L13.5016 13.4299L13.4648 13.4496L14.3318 14.2458V14.2491Z" fill="#8DBFC6"/>
<path d="M14.0439 14.405L14.0475 14.2339L13.4157 13.6515L13.1769 13.6055L12.5193 13.9509L12.5156 14.122L13.1475 14.7044L13.3863 14.7504L14.0439 14.405Z" fill="#576975"/>
<path opacity="0.2" d="M14.0441 14.405L14.0074 14.4247L13.1404 13.6252L13.1771 13.6055L14.0441 14.405ZM13.3865 14.7504L13.4232 14.7307L12.5563 13.9312L12.5195 13.9509L13.3865 14.7504Z" fill="#8DBFC6"/>
<path d="M13.0866 14.9036L13.0903 14.7325L12.4547 14.1502L12.2159 14.1074L11.5584 14.4496L11.5547 14.6207L12.1902 15.203L12.429 15.2491L13.0866 14.9036Z" fill="#576975"/>
<path opacity="0.2" d="M13.0832 14.905L13.0464 14.9247L12.1794 14.1252L12.2162 14.1055L13.0832 14.905ZM12.4256 15.2504L12.4623 15.2307L11.5953 14.4312L11.5586 14.4509L12.4256 15.2504Z" fill="#8DBFC6"/>
<path d="M12.1061 15.4011L12.1098 15.23L11.4743 14.6443L11.2391 14.6016L10.5779 14.947L10.5742 15.1148L11.2098 15.7004L11.4485 15.7432L12.1061 15.4011Z" fill="#576975"/>
<path opacity="0.2" d="M12.1064 15.4011L12.0696 15.4208L11.2026 14.6213L11.2394 14.6016L12.1064 15.4011ZM11.4488 15.7432L11.4855 15.7235L10.6149 14.924L10.5781 14.9437L11.4451 15.7432H11.4488Z" fill="#8DBFC6"/>
<path d="M17.8915 11.0735L17.8989 10.9057L17.2633 10.3234L17.0282 10.2773L16.367 10.6228L16.3633 10.7906L16.9988 11.3729L17.2339 11.419L17.8915 11.0735Z" fill="#576975"/>
<path opacity="0.2" d="M17.8918 11.0735L17.855 11.0933L16.988 10.2971L17.0248 10.2773L17.8918 11.0735ZM17.2342 11.419L17.2709 11.3993L16.4039 10.6031L16.3672 10.6228L17.2305 11.419H17.2342Z" fill="#8DBFC6"/>
<path d="M16.9147 11.571L16.9184 11.3999L16.2829 10.8175L16.0477 10.7715L15.3865 11.1169L15.3828 11.288L16.0184 11.8704L16.2535 11.9131L16.9147 11.571Z" fill="#576975"/>
<path opacity="0.2" d="M16.915 11.5677L16.8782 11.5874L16.0112 10.7912L16.048 10.7715L16.915 11.5677ZM16.2537 11.9099L16.2904 11.8901L15.4235 11.0939L15.3867 11.1137L16.25 11.9099H16.2537Z" fill="#8DBFC6"/>
<path d="M15.9657 12.0618L15.9694 11.8907L15.3375 11.3084L15.0988 11.2656L14.4412 11.6078L14.4375 11.7789L15.0694 12.3612L15.3082 12.4073L15.9657 12.0618Z" fill="#576975"/>
<path opacity="0.2" d="M15.966 12.0618L15.9292 12.0816L15.0623 11.2854L15.099 11.2656L15.966 12.0618ZM15.3084 12.4073L15.3451 12.3875L14.4781 11.5913L14.4414 11.6111L15.3084 12.4073Z" fill="#8DBFC6"/>
<path d="M15.0165 12.5638L15.0202 12.3927L14.3883 11.8104L14.1495 11.7676L13.492 12.1097L13.4883 12.2808L14.1201 12.8632L14.3589 12.9092L15.0165 12.5638Z" fill="#576975"/>
<path opacity="0.2" d="M15.0128 12.5638L14.9761 12.5835L14.1091 11.7873L14.1459 11.7676L15.0128 12.5638ZM14.3553 12.9092L14.392 12.8895L13.525 12.09L13.4883 12.1097L14.3553 12.9059V12.9092Z" fill="#8DBFC6"/>
<path d="M14.071 13.0632L14.0746 12.8921L13.4391 12.3097L13.204 12.2637L12.5427 12.6091L12.5391 12.7769L13.1746 13.3626L13.4097 13.4053L14.071 13.0632Z" fill="#576975"/>
<path opacity="0.2" d="M14.0712 13.0632L14.0345 13.0829L13.1675 12.2834L13.2042 12.2637L14.0712 13.0632ZM13.41 13.4053L13.4467 13.3856L12.5797 12.5861L12.543 12.6058L13.41 13.402V13.4053Z" fill="#8DBFC6"/>
<path d="M13.1218 13.5612L13.1254 13.3901L12.4899 12.8078L12.2548 12.7617L11.5935 13.1072L11.5898 13.2783L12.2254 13.8606L12.4642 13.9067L13.1218 13.5612Z" fill="#576975"/>
<path opacity="0.2" d="M13.1222 13.5612L13.0855 13.5809L12.2185 12.7815L12.2552 12.7617L13.1222 13.5612ZM12.4646 13.9067L12.5014 13.8869L11.6344 13.0874L11.5977 13.1072L12.4646 13.9067Z" fill="#8DBFC6"/>
<path d="M12.1728 14.056L12.1764 13.8849L11.5446 13.3025L11.3058 13.2598L10.6482 13.6019L10.6445 13.773L11.2764 14.3554L11.5152 14.4014L12.1728 14.056Z" fill="#576975"/>
<path opacity="0.2" d="M12.173 14.0573L12.1363 14.077L11.2693 13.2776L11.306 13.2578L12.173 14.0573ZM11.5154 14.4028L11.5522 14.383L10.6852 13.5835L10.6484 13.6033L11.5154 14.4028Z" fill="#8DBFC6"/>
<path d="M11.2272 14.5593L11.2309 14.3882L10.5954 13.8025L10.3566 13.7598L9.69899 14.1019L9.69531 14.273L10.3309 14.8587L10.566 14.9014L11.2272 14.5593Z" fill="#576975"/>
<path opacity="0.2" d="M11.2272 14.5593L11.1905 14.579L10.3235 13.7795L10.3602 13.7598L11.2272 14.5593ZM10.566 14.9014L10.6027 14.8817L9.73205 14.0822L9.69531 14.1019L10.5623 14.9014H10.566Z" fill="#8DBFC6"/>
<path d="M16.985 10.2259L16.9887 10.0548L16.3532 9.47246L16.1181 9.42969L15.4568 9.77186L15.4531 9.94294L16.0887 10.5253L16.3238 10.5681L16.985 10.2259Z" fill="#576975"/>
<path opacity="0.2" d="M16.9814 10.2259L16.9446 10.2456L16.0776 9.44943L16.1144 9.42969L16.9814 10.2259ZM16.3201 10.5681L16.3568 10.5483L15.4899 9.75211L15.4531 9.77186L16.3164 10.5681H16.3201Z" fill="#8DBFC6"/>
<path d="M16.0241 10.72L16.0278 10.5489L15.3959 9.9666L15.1571 9.92383L14.4959 10.266L14.4922 10.4371L15.1277 11.0194L15.3628 11.0655L16.0241 10.72Z" fill="#576975"/>
<path opacity="0.2" d="M16.0361 10.72L15.9993 10.7398L15.1323 9.94357L15.1691 9.92383L16.0361 10.72ZM15.3748 11.0655L15.4115 11.0457L14.5445 10.2495L14.5078 10.2693L15.3711 11.0655H15.3748Z" fill="#8DBFC6"/>
<path d="M15.0478 11.2239L15.0514 11.0561L14.4196 10.4738L14.1808 10.4277L13.5232 10.7699L13.5195 10.941L14.1514 11.5233L14.3902 11.5694L15.0478 11.2239Z" fill="#576975"/>
<path opacity="0.2" d="M15.0753 11.2239L15.0386 11.2437L14.1716 10.4475L14.2084 10.4277L15.0753 11.2239ZM14.4178 11.5694L14.4545 11.5497L13.5875 10.7535L13.5508 10.7732L14.4178 11.5694Z" fill="#8DBFC6"/>
<path d="M14.0946 11.7272L14.0983 11.5561L13.4665 10.9738L13.2277 10.9277L12.5701 11.2732L12.5664 11.441L13.1983 12.0266L13.4371 12.0694L14.0946 11.7272Z" fill="#576975"/>
<path opacity="0.2" d="M14.0949 11.7337L14.0581 11.7534L13.1912 10.9572L13.2279 10.9375L14.0949 11.7337ZM13.4373 12.0759L13.474 12.0561L12.607 11.2599L12.5703 11.2797L13.4373 12.0759Z" fill="#8DBFC6"/>
<path d="M13.1452 12.2253L13.1489 12.0542L12.5133 11.4718L12.2745 11.4258L11.617 11.7712L11.6133 11.9423L12.2451 12.5247L12.4839 12.5674L13.1452 12.2253Z" fill="#576975"/>
<path opacity="0.2" d="M13.1418 12.2253L13.105 12.245L12.238 11.4455L12.2748 11.4258L13.1418 12.2253ZM12.4842 12.5674L12.5209 12.5477L11.6539 11.7482L11.6172 11.7679L12.4842 12.5641V12.5674Z" fill="#8DBFC6"/>
<path d="M12.1999 12.7175L12.2036 12.5464L11.568 11.964L11.3292 11.918L10.6716 12.2634L10.668 12.4345L11.3035 13.0169L11.5386 13.0629L12.1999 12.7175Z" fill="#576975"/>
<path opacity="0.2" d="M12.2001 12.7175L12.1634 12.7372L11.2964 11.9377L11.3331 11.918L12.2001 12.7175ZM11.5389 13.0629L11.5756 13.0432L10.7086 12.2437L10.6719 12.2634L11.5389 13.0629Z" fill="#8DBFC6"/>
<path d="M11.2507 13.2122L11.2543 13.0411L10.6188 12.4588L10.3837 12.416L9.72242 12.7582L9.71875 12.9293L10.3543 13.5116L10.5931 13.5577L11.2507 13.2122Z" fill="#576975"/>
<path opacity="0.2" d="M11.2472 13.2116L11.2105 13.2313L10.3435 12.4318L10.3802 12.4121L11.2472 13.2116ZM10.5896 13.5571L10.6264 13.5373L9.75939 12.7378L9.72266 12.7576L10.5896 13.5571Z" fill="#8DBFC6"/>
<path d="M10.3053 13.7064L10.309 13.5386L9.67348 12.9529L9.43837 12.9102L8.77711 13.2523L8.77344 13.4234L9.40898 14.0058L9.64777 14.0518L10.3053 13.7064Z" fill="#576975"/>
<path opacity="0.2" d="M10.3056 13.7096L10.2688 13.7294L9.40186 12.9299L9.4386 12.9102L10.3093 13.7096H10.3056ZM9.648 14.0518L9.68474 14.0321L8.81408 13.2326L8.77734 13.2523L9.64433 14.0518H9.648Z" fill="#8DBFC6"/>
<defs>
<linearGradient id="paint0_linear_237_20125" x1="13.4531" y1="8.60148" x2="13.93" y2="8.60148" gradientUnits="userSpaceOnUse">
<stop stop-color="#4D4846"/>
<stop offset="1" stop-color="#544F4D"/>
</linearGradient>
<linearGradient id="paint1_linear_237_20125" x1="18.2811" y1="6.10306" x2="18.762" y2="6.10306" gradientUnits="userSpaceOnUse">
<stop stop-color="#4D4846"/>
<stop offset="1" stop-color="#544F4D"/>
</linearGradient>
<linearGradient id="paint2_linear_237_20125" x1="4.67565" y1="13.148" x2="5.15653" y2="13.148" gradientUnits="userSpaceOnUse">
<stop stop-color="#4D4846"/>
<stop offset="1" stop-color="#544F4D"/>
</linearGradient>
<linearGradient id="paint3_linear_237_20125" x1="9.50354" y1="10.6372" x2="9.98442" y2="10.6372" gradientUnits="userSpaceOnUse">
<stop stop-color="#4D4846"/>
<stop offset="1" stop-color="#544F4D"/>
</linearGradient>
<linearGradient id="paint4_linear_237_20125" x1="21.548" y1="13.1519" x2="22.0248" y2="13.1519" gradientUnits="userSpaceOnUse">
<stop stop-color="#4D4846"/>
<stop offset="1" stop-color="#544F4D"/>
</linearGradient>
<linearGradient id="paint5_linear_237_20125" x1="26.3878" y1="10.6451" x2="26.8647" y2="10.6451" gradientUnits="userSpaceOnUse">
<stop stop-color="#4D4846"/>
<stop offset="1" stop-color="#544F4D"/>
</linearGradient>
<linearGradient id="paint6_linear_237_20125" x1="12.7706" y1="17.6822" x2="13.2475" y2="17.6822" gradientUnits="userSpaceOnUse">
<stop stop-color="#4D4846"/>
<stop offset="1" stop-color="#544F4D"/>
</linearGradient>
<linearGradient id="paint7_linear_237_20125" x1="17.6025" y1="15.1734" x2="18.0834" y2="15.1734" gradientUnits="userSpaceOnUse">
<stop stop-color="#4D4846"/>
<stop offset="1" stop-color="#544F4D"/>
</linearGradient>
</defs>
</svg>
